<?xml version="1.0" encoding="UTF-8" standalone="no"?>
<svg
   xmlns:dc="http://purl.org/dc/elements/1.1/"
   xmlns:cc="http://creativecommons.org/ns#"
   xmlns:rdf="http://www.w3.org/1999/02/22-rdf-syntax-ns#"
   xmlns:svg="http://www.w3.org/2000/svg"
   xmlns="http://www.w3.org/2000/svg"
   viewBox="0 0 1271.7733 348.77332"
   height="348.77332"
   width="1271.7733"
   xml:space="preserve"
   id="svg2"
   version="1.1"><metadata
     id="metadata8"><rdf:RDF><cc:Work
         rdf:about=""><dc:format>image/svg+xml</dc:format><dc:type
           rdf:resource="http://purl.org/dc/dcmitype/StillImage" /></cc:Work></rdf:RDF></metadata><defs
     id="defs6"><clipPath
       id="clipPath20"
       clipPathUnits="userSpaceOnUse"><path
         id="path18"
         d="m 326.688,704.762 c -23.477,0 -42.5,-19.032 -42.5,-42.5 0,-23.481 19.023,-42.5 42.5,-42.5 23.464,0 42.488,19.019 42.488,42.5 0,23.468 -19.024,42.5 -42.488,42.5 z" /></clipPath><linearGradient
       id="linearGradient32"
       spreadMethod="pad"
       gradientTransform="matrix(7837.42,108.991,108.991,-7837.42,1941.45,684.72)"
       gradientUnits="userSpaceOnUse"
       y2="0"
       x2="1"
       y1="0"
       x1="0"><stop
         id="stop22"
         offset="0"
         style="stop-opacity:1;stop-color:#00adef" /><stop
         id="stop24"
         offset="0.00198009"
         style="stop-opacity:1;stop-color:#00adef" /><stop
         id="stop26"
         offset="0.44344"
         style="stop-opacity:1;stop-color:#8d198f" /><stop
         id="stop28"
         offset="0.99856"
         style="stop-opacity:1;stop-color:#340e3d" /><stop
         id="stop30"
         offset="1"
         style="stop-opacity:1;stop-color:#340e3d" /></linearGradient><clipPath
       id="clipPath42"
       clipPathUnits="userSpaceOnUse"><path
         id="path40"
         d="m 871.012,709.27 c -25.985,0 -47.059,-21.059 -47.059,-47.059 0,-25.981 21.074,-47.063 47.059,-47.063 25.988,0 47.062,21.082 47.062,47.063 0,26 -21.074,47.059 -47.062,47.059 z" /></clipPath><linearGradient
       id="linearGradient54"
       spreadMethod="pad"
       gradientTransform="matrix(7837.42,108.991,108.991,-7837.42,1941.55,677.1)"
       gradientUnits="userSpaceOnUse"
       y2="0"
       x2="1"
       y1="0"
       x1="0"><stop
         id="stop44"
         offset="0"
         style="stop-opacity:1;stop-color:#00adef" /><stop
         id="stop46"
         offset="0.00198009"
         style="stop-opacity:1;stop-color:#00adef" /><stop
         id="stop48"
         offset="0.44344"
         style="stop-opacity:1;stop-color:#8d198f" /><stop
         id="stop50"
         offset="0.99856"
         style="stop-opacity:1;stop-color:#340e3d" /><stop
         id="stop52"
         offset="1"
         style="stop-opacity:1;stop-color:#340e3d" /></linearGradient><clipPath
       id="clipPath64"
       clipPathUnits="userSpaceOnUse"><path
         id="path62"
         d="m 1415.35,713.789 c -28.51,0 -51.62,-23.109 -51.62,-51.617 0,-28.512 23.11,-51.621 51.62,-51.621 28.5,0 51.62,23.109 51.62,51.621 0,28.508 -23.12,51.617 -51.62,51.617 z" /></clipPath><linearGradient
       id="linearGradient76"
       spreadMethod="pad"
       gradientTransform="matrix(7837.42,108.991,108.991,-7837.42,1941.66,669.49)"
       gradientUnits="userSpaceOnUse"
       y2="0"
       x2="1"
       y1="0"
       x1="0"><stop
         id="stop66"
         offset="0"
         style="stop-opacity:1;stop-color:#00adef" /><stop
         id="stop68"
         offset="0.00198009"
         style="stop-opacity:1;stop-color:#00adef" /><stop
         id="stop70"
         offset="0.44344"
         style="stop-opacity:1;stop-color:#8d198f" /><stop
         id="stop72"
         offset="0.99856"
         style="stop-opacity:1;stop-color:#340e3d" /><stop
         id="stop74"
         offset="1"
         style="stop-opacity:1;stop-color:#340e3d" /></linearGradient><clipPath
       id="clipPath86"
       clipPathUnits="userSpaceOnUse"><path
         id="path84"
         d="m 1959.67,718.309 c -31.02,0 -56.17,-25.161 -56.17,-56.188 0,-31.019 25.15,-56.18 56.17,-56.18 31.04,0 56.2,25.161 56.2,56.18 0,31.027 -25.16,56.188 -56.2,56.188 z" /></clipPath><linearGradient
       id="linearGradient98"
       spreadMethod="pad"
       gradientTransform="matrix(7837.42,108.991,108.991,-7837.42,1941.76,661.87)"
       gradientUnits="userSpaceOnUse"
       y2="0"
       x2="1"
       y1="0"
       x1="0"><stop
         id="stop88"
         offset="0"
         style="stop-opacity:1;stop-color:#00adef" /><stop
         id="stop90"
         offset="0.00198009"
         style="stop-opacity:1;stop-color:#00adef" /><stop
         id="stop92"
         offset="0.44344"
         style="stop-opacity:1;stop-color:#8d198f" /><stop
         id="stop94"
         offset="0.99856"
         style="stop-opacity:1;stop-color:#340e3d" /><stop
         id="stop96"
         offset="1"
         style="stop-opacity:1;stop-color:#340e3d" /></linearGradient><clipPath
       id="clipPath108"
       clipPathUnits="userSpaceOnUse"><path
         id="path106"
         d="m 2504.01,719.199 c -31.5,0 -57.13,-25.617 -57.13,-57.121 0,-31.508 25.63,-57.137 57.13,-57.137 31.5,0 57.13,25.629 57.13,57.137 0,31.504 -25.63,57.121 -57.13,57.121 z" /></clipPath><linearGradient
       id="linearGradient120"
       spreadMethod="pad"
       gradientTransform="matrix(7837.42,108.991,108.991,-7837.42,1941.87,654.26)"
       gradientUnits="userSpaceOnUse"
       y2="0"
       x2="1"
       y1="0"
       x1="0"><stop
         id="stop110"
         offset="0"
         style="stop-opacity:1;stop-color:#00adef" /><stop
         id="stop112"
         offset="0.00198009"
         style="stop-opacity:1;stop-color:#00adef" /><stop
         id="stop114"
         offset="0.44344"
         style="stop-opacity:1;stop-color:#8d198f" /><stop
         id="stop116"
         offset="0.99856"
         style="stop-opacity:1;stop-color:#340e3d" /><stop
         id="stop118"
         offset="1"
         style="stop-opacity:1;stop-color:#340e3d" /></linearGradient><clipPath
       id="clipPath130"
       clipPathUnits="userSpaceOnUse"><path
         id="path128"
         d="m 3048.35,727.332 c -36.08,0 -65.31,-29.242 -65.31,-65.301 0,-36.07 29.23,-65.312 65.31,-65.312 36.06,0 65.3,29.242 65.3,65.312 0,36.059 -29.24,65.301 -65.3,65.301 z" /></clipPath><linearGradient
       id="linearGradient142"
       spreadMethod="pad"
       gradientTransform="matrix(7837.42,108.991,108.991,-7837.42,1941.98,646.64)"
       gradientUnits="userSpaceOnUse"
       y2="0"
       x2="1"
       y1="0"
       x1="0"><stop
         id="stop132"
         offset="0"
         style="stop-opacity:1;stop-color:#00adef" /><stop
         id="stop134"
         offset="0.00198009"
         style="stop-opacity:1;stop-color:#00adef" /><stop
         id="stop136"
         offset="0.44344"
         style="stop-opacity:1;stop-color:#8d198f" /><stop
         id="stop138"
         offset="0.99856"
         style="stop-opacity:1;stop-color:#340e3d" /><stop
         id="stop140"
         offset="1"
         style="stop-opacity:1;stop-color:#340e3d" /></linearGradient><clipPath
       id="clipPath152"
       clipPathUnits="userSpaceOnUse"><path
         id="path150"
         d="m 3592.68,728.238 c -36.54,0 -66.26,-29.726 -66.26,-66.258 0,-36.539 29.72,-66.25 66.26,-66.25 36.53,0 66.25,29.711 66.25,66.25 0,36.532 -29.72,66.258 -66.25,66.258 z" /></clipPath><linearGradient
       id="linearGradient164"
       spreadMethod="pad"
       gradientTransform="matrix(7837.42,108.991,108.991,-7837.42,1942.08,639.03)"
       gradientUnits="userSpaceOnUse"
       y2="0"
       x2="1"
       y1="0"
       x1="0"><stop
         id="stop154"
         offset="0"
         style="stop-opacity:1;stop-color:#00adef" /><stop
         id="stop156"
         offset="0.00198009"
         style="stop-opacity:1;stop-color:#00adef" /><stop
         id="stop158"
         offset="0.44344"
         style="stop-opacity:1;stop-color:#8d198f" /><stop
         id="stop160"
         offset="0.99856"
         style="stop-opacity:1;stop-color:#340e3d" /><stop
         id="stop162"
         offset="1"
         style="stop-opacity:1;stop-color:#340e3d" /></linearGradient><clipPath
       id="clipPath174"
       clipPathUnits="userSpaceOnUse"><path
         id="path172"
         d="m 4137.01,736.359 c -41.1,0 -74.43,-33.32 -74.43,-74.418 0,-41.101 33.33,-74.429 74.43,-74.429 41.1,0 74.42,33.328 74.42,74.429 0,41.098 -33.32,74.418 -74.42,74.418 z" /></clipPath><linearGradient
       id="linearGradient186"
       spreadMethod="pad"
       gradientTransform="matrix(7837.42,108.991,108.991,-7837.42,1942.19,631.42)"
       gradientUnits="userSpaceOnUse"
       y2="0"
       x2="1"
       y1="0"
       x1="0"><stop
         id="stop176"
         offset="0"
         style="stop-opacity:1;stop-color:#00adef" /><stop
         id="stop178"
         offset="0.00198009"
         style="stop-opacity:1;stop-color:#00adef" /><stop
         id="stop180"
         offset="0.44344"
         style="stop-opacity:1;stop-color:#8d198f" /><stop
         id="stop182"
         offset="0.99856"
         style="stop-opacity:1;stop-color:#340e3d" /><stop
         id="stop184"
         offset="1"
         style="stop-opacity:1;stop-color:#340e3d" /></linearGradient><clipPath
       id="clipPath196"
       clipPathUnits="userSpaceOnUse"><path
         id="path194"
         d="m 4681.34,740.871 c -43.62,0 -78.99,-35.359 -78.99,-78.98 0,-43.621 35.37,-78.981 78.99,-78.981 43.63,0 78.99,35.36 78.99,78.981 0,43.621 -35.36,78.98 -78.99,78.98 z" /></clipPath><linearGradient
       id="linearGradient208"
       spreadMethod="pad"
       gradientTransform="matrix(7837.42,108.991,108.991,-7837.42,1942.29,623.8)"
       gradientUnits="userSpaceOnUse"
       y2="0"
       x2="1"
       y1="0"
       x1="0"><stop
         id="stop198"
         offset="0"
         style="stop-opacity:1;stop-color:#00adef" /><stop
         id="stop200"
         offset="0.00198009"
         style="stop-opacity:1;stop-color:#00adef" /><stop
         id="stop202"
         offset="0.44344"
         style="stop-opacity:1;stop-color:#8d198f" /><stop
         id="stop204"
         offset="0.99856"
         style="stop-opacity:1;stop-color:#340e3d" /><stop
         id="stop206"
         offset="1"
         style="stop-opacity:1;stop-color:#340e3d" /></linearGradient><clipPath
       id="clipPath218"
       clipPathUnits="userSpaceOnUse"><path
         id="path216"
         d="m 5225.67,745.391 c -46.13,0 -83.54,-37.411 -83.54,-83.551 0,-46.141 37.41,-83.539 83.54,-83.539 46.15,0 83.56,37.398 83.56,83.539 0,46.14 -37.41,83.551 -83.56,83.551 z" /></clipPath><linearGradient
       id="linearGradient230"
       spreadMethod="pad"
       gradientTransform="matrix(7837.42,108.991,108.991,-7837.42,1942.4,616.18)"
       gradientUnits="userSpaceOnUse"
       y2="0"
       x2="1"
       y1="0"
       x1="0"><stop
         id="stop220"
         offset="0"
         style="stop-opacity:1;stop-color:#00adef" /><stop
         id="stop222"
         offset="0.00198009"
         style="stop-opacity:1;stop-color:#00adef" /><stop
         id="stop224"
         offset="0.44344"
         style="stop-opacity:1;stop-color:#8d198f" /><stop
         id="stop226"
         offset="0.99856"
         style="stop-opacity:1;stop-color:#340e3d" /><stop
         id="stop228"
         offset="1"
         style="stop-opacity:1;stop-color:#340e3d" /></linearGradient><clipPath
       id="clipPath240"
       clipPathUnits="userSpaceOnUse"><path
         id="path238"
         d="m 5770.01,749.91 c -48.67,0 -88.11,-39.461 -88.11,-88.121 0,-48.648 39.44,-88.098 88.11,-88.098 48.66,0 88.1,39.45 88.1,88.098 0,48.66 -39.44,88.121 -88.1,88.121 z" /></clipPath><linearGradient
       id="linearGradient252"
       spreadMethod="pad"
       gradientTransform="matrix(7837.42,108.991,108.991,-7837.42,1942.5,608.57)"
       gradientUnits="userSpaceOnUse"
       y2="0"
       x2="1"
       y1="0"
       x1="0"><stop
         id="stop242"
         offset="0"
         style="stop-opacity:1;stop-color:#00adef" /><stop
         id="stop244"
         offset="0.00198009"
         style="stop-opacity:1;stop-color:#00adef" /><stop
         id="stop246"
         offset="0.44344"
         style="stop-opacity:1;stop-color:#8d198f" /><stop
         id="stop248"
         offset="0.99856"
         style="stop-opacity:1;stop-color:#340e3d" /><stop
         id="stop250"
         offset="1"
         style="stop-opacity:1;stop-color:#340e3d" /></linearGradient><clipPath
       id="clipPath262"
       clipPathUnits="userSpaceOnUse"><path
         id="path260"
         d="m 6314.34,754.422 c -51.18,0 -92.67,-41.492 -92.67,-92.672 0,-51.18 41.49,-92.672 92.67,-92.672 51.17,0 92.67,41.492 92.67,92.672 0,51.18 -41.5,92.672 -92.67,92.672 z" /></clipPath><linearGradient
       id="linearGradient274"
       spreadMethod="pad"
       gradientTransform="matrix(7837.42,108.991,108.991,-7837.42,1942.61,600.96)"
       gradientUnits="userSpaceOnUse"
       y2="0"
       x2="1"
       y1="0"
       x1="0"><stop
         id="stop264"
         offset="0"
         style="stop-opacity:1;stop-color:#00adef" /><stop
         id="stop266"
         offset="0.00198009"
         style="stop-opacity:1;stop-color:#00adef" /><stop
         id="stop268"
         offset="0.44344"
         style="stop-opacity:1;stop-color:#8d198f" /><stop
         id="stop270"
         offset="0.99856"
         style="stop-opacity:1;stop-color:#340e3d" /><stop
         id="stop272"
         offset="1"
         style="stop-opacity:1;stop-color:#340e3d" /></linearGradient><clipPath
       id="clipPath284"
       clipPathUnits="userSpaceOnUse"><path
         id="path282"
         d="m 6858.68,758.93 c -53.7,0 -97.24,-43.52 -97.24,-97.231 0,-53.699 43.54,-97.219 97.24,-97.219 53.69,0 97.23,43.52 97.23,97.219 0,53.711 -43.54,97.231 -97.23,97.231 z" /></clipPath><linearGradient
       id="linearGradient296"
       spreadMethod="pad"
       gradientTransform="matrix(7837.42,108.991,108.991,-7837.42,1942.72,593.34)"
       gradientUnits="userSpaceOnUse"
       y2="0"
       x2="1"
       y1="0"
       x1="0"><stop
         id="stop286"
         offset="0"
         style="stop-opacity:1;stop-color:#00adef" /><stop
         id="stop288"
         offset="0.00198009"
         style="stop-opacity:1;stop-color:#00adef" /><stop
         id="stop290"
         offset="0.44344"
         style="stop-opacity:1;stop-color:#8d198f" /><stop
         id="stop292"
         offset="0.99856"
         style="stop-opacity:1;stop-color:#340e3d" /><stop
         id="stop294"
         offset="1"
         style="stop-opacity:1;stop-color:#340e3d" /></linearGradient><clipPath
       id="clipPath306"
       clipPathUnits="userSpaceOnUse"><path
         id="path304"
         d="m 7403,763.449 c -56.22,0 -101.78,-45.57 -101.78,-101.789 0,-56.23 45.56,-101.789 101.78,-101.789 56.23,0 101.79,45.559 101.79,101.789 0,56.219 -45.56,101.789 -101.79,101.789 z" /></clipPath><linearGradient
       id="linearGradient318"
       spreadMethod="pad"
       gradientTransform="matrix(7837.42,108.991,108.991,-7837.42,1942.82,585.73)"
       gradientUnits="userSpaceOnUse"
       y2="0"
       x2="1"
       y1="0"
       x1="0"><stop
         id="stop308"
         offset="0"
         style="stop-opacity:1;stop-color:#00adef" /><stop
         id="stop310"
         offset="0.00198009"
         style="stop-opacity:1;stop-color:#00adef" /><stop
         id="stop312"
         offset="0.44344"
         style="stop-opacity:1;stop-color:#8d198f" /><stop
         id="stop314"
         offset="0.99856"
         style="stop-opacity:1;stop-color:#340e3d" /><stop
         id="stop316"
         offset="1"
         style="stop-opacity:1;stop-color:#340e3d" /></linearGradient><clipPath
       id="clipPath328"
       clipPathUnits="userSpaceOnUse"><path
         id="path326"
         d="m 7947.34,767.961 c -58.74,0 -106.36,-47.609 -106.36,-106.352 0,-58.73 47.62,-106.347 106.36,-106.347 58.74,0 106.35,47.617 106.35,106.347 0,58.743 -47.61,106.352 -106.35,106.352 z" /></clipPath><linearGradient
       id="linearGradient340"
       spreadMethod="pad"
       gradientTransform="matrix(7837.42,108.991,108.991,-7837.42,1942.93,578.11)"
       gradientUnits="userSpaceOnUse"
       y2="0"
       x2="1"
       y1="0"
       x1="0"><stop
         id="stop330"
         offset="0"
         style="stop-opacity:1;stop-color:#00adef" /><stop
         id="stop332"
         offset="0.00198009"
         style="stop-opacity:1;stop-color:#00adef" /><stop
         id="stop334"
         offset="0.44344"
         style="stop-opacity:1;stop-color:#8d198f" /><stop
         id="stop336"
         offset="0.99856"
         style="stop-opacity:1;stop-color:#340e3d" /><stop
         id="stop338"
         offset="1"
         style="stop-opacity:1;stop-color:#340e3d" /></linearGradient><clipPath
       id="clipPath350"
       clipPathUnits="userSpaceOnUse"><path
         id="path348"
         d="m 8491.67,772.48 c -61.25,0 -110.91,-49.66 -110.91,-110.91 0,-61.261 49.66,-110.922 110.91,-110.922 61.26,0 110.91,49.661 110.91,110.922 0,61.25 -49.65,110.91 -110.91,110.91 z" /></clipPath><linearGradient
       id="linearGradient362"
       spreadMethod="pad"
       gradientTransform="matrix(7837.42,108.991,108.991,-7837.42,1943.03,570.5)"
       gradientUnits="userSpaceOnUse"
       y2="0"
       x2="1"
       y1="0"
       x1="0"><stop
         id="stop352"
         offset="0"
         style="stop-opacity:1;stop-color:#00adef" /><stop
         id="stop354"
         offset="0.00198009"
         style="stop-opacity:1;stop-color:#00adef" /><stop
         id="stop356"
         offset="0.44344"
         style="stop-opacity:1;stop-color:#8d198f" /><stop
         id="stop358"
         offset="0.99856"
         style="stop-opacity:1;stop-color:#340e3d" /><stop
         id="stop360"
         offset="1"
         style="stop-opacity:1;stop-color:#340e3d" /></linearGradient><clipPath
       id="clipPath372"
       clipPathUnits="userSpaceOnUse"><path
         id="path370"
         d="m 9036,776.988 c -63.77,0 -115.47,-51.699 -115.47,-115.468 0,-63.782 51.7,-115.481 115.47,-115.481 63.77,0 115.47,51.699 115.47,115.481 0,63.769 -51.7,115.468 -115.47,115.468 z" /></clipPath><linearGradient
       id="linearGradient384"
       spreadMethod="pad"
       gradientTransform="matrix(7837.42,108.991,108.991,-7837.42,1943.14,562.88)"
       gradientUnits="userSpaceOnUse"
       y2="0"
       x2="1"
       y1="0"
       x1="0"><stop
         id="stop374"
         offset="0"
         style="stop-opacity:1;stop-color:#00adef" /><stop
         id="stop376"
         offset="0.00198009"
         style="stop-opacity:1;stop-color:#00adef" /><stop
         id="stop378"
         offset="0.44344"
         style="stop-opacity:1;stop-color:#8d198f" /><stop
         id="stop380"
         offset="0.99856"
         style="stop-opacity:1;stop-color:#340e3d" /><stop
         id="stop382"
         offset="1"
         style="stop-opacity:1;stop-color:#340e3d" /></linearGradient><clipPath
       id="clipPath394"
       clipPathUnits="userSpaceOnUse"><path
         id="path392"
         d="M 0,0 H 9538 V 2615.77 H 0 Z" /></clipPath></defs><g
     transform="matrix(1.3333333,0,0,-1.3333333,0,348.77333)"
     id="g10"><g
       transform="scale(0.1)"
       id="g12"><g
         id="g14"><g
           clip-path="url(#clipPath20)"
           id="g16"><path
             id="path34"
             style="fill:url(#linearGradient32);fill-opacity:1;fill-rule:nonzero;stroke:none"
             d="m 326.688,704.762 c -23.477,0 -42.5,-19.032 -42.5,-42.5 0,-23.481 19.023,-42.5 42.5,-42.5 23.464,0 42.488,19.019 42.488,42.5 0,23.468 -19.024,42.5 -42.488,42.5" /></g></g><g
         id="g36"><g
           clip-path="url(#clipPath42)"
           id="g38"><path
             id="path56"
             style="fill:url(#linearGradient54);fill-opacity:1;fill-rule:nonzero;stroke:none"
             d="m 871.012,709.27 c -25.985,0 -47.059,-21.059 -47.059,-47.059 0,-25.981 21.074,-47.063 47.059,-47.063 25.988,0 47.062,21.082 47.062,47.063 0,26 -21.074,47.059 -47.062,47.059" /></g></g><g
         id="g58"><g
           clip-path="url(#clipPath64)"
           id="g60"><path
             id="path78"
             style="fill:url(#linearGradient76);fill-opacity:1;fill-rule:nonzero;stroke:none"
             d="m 1415.35,713.789 c -28.51,0 -51.62,-23.109 -51.62,-51.617 0,-28.512 23.11,-51.621 51.62,-51.621 28.5,0 51.62,23.109 51.62,51.621 0,28.508 -23.12,51.617 -51.62,51.617" /></g></g><g
         id="g80"><g
           clip-path="url(#clipPath86)"
           id="g82"><path
             id="path100"
             style="fill:url(#linearGradient98);fill-opacity:1;fill-rule:nonzero;stroke:none"
             d="m 1959.67,718.309 c -31.02,0 -56.17,-25.161 -56.17,-56.188 0,-31.019 25.15,-56.18 56.17,-56.18 31.04,0 56.2,25.161 56.2,56.18 0,31.027 -25.16,56.188 -56.2,56.188" /></g></g><g
         id="g102"><g
           clip-path="url(#clipPath108)"
           id="g104"><path
             id="path122"
             style="fill:url(#linearGradient120);fill-opacity:1;fill-rule:nonzero;stroke:none"
             d="m 2504.01,719.199 c -31.5,0 -57.13,-25.617 -57.13,-57.121 0,-31.508 25.63,-57.137 57.13,-57.137 31.5,0 57.13,25.629 57.13,57.137 0,31.504 -25.63,57.121 -57.13,57.121" /></g></g><g
         id="g124"><g
           clip-path="url(#clipPath130)"
           id="g126"><path
             id="path144"
             style="fill:url(#linearGradient142);fill-opacity:1;fill-rule:nonzero;stroke:none"
             d="m 3048.35,727.332 c -36.08,0 -65.31,-29.242 -65.31,-65.301 0,-36.07 29.23,-65.312 65.31,-65.312 36.06,0 65.3,29.242 65.3,65.312 0,36.059 -29.24,65.301 -65.3,65.301" /></g></g><g
         id="g146"><g
           clip-path="url(#clipPath152)"
           id="g148"><path
             id="path166"
             style="fill:url(#linearGradient164);fill-opacity:1;fill-rule:nonzero;stroke:none"
             d="m 3592.68,728.238 c -36.54,0 -66.26,-29.726 -66.26,-66.258 0,-36.539 29.72,-66.25 66.26,-66.25 36.53,0 66.25,29.711 66.25,66.25 0,36.532 -29.72,66.258 -66.25,66.258" /></g></g><g
         id="g168"><g
           clip-path="url(#clipPath174)"
           id="g170"><path
             id="path188"
             style="fill:url(#linearGradient186);fill-opacity:1;fill-rule:nonzero;stroke:none"
             d="m 4137.01,736.359 c -41.1,0 -74.43,-33.32 -74.43,-74.418 0,-41.101 33.33,-74.429 74.43,-74.429 41.1,0 74.42,33.328 74.42,74.429 0,41.098 -33.32,74.418 -74.42,74.418" /></g></g><g
         id="g190"><g
           clip-path="url(#clipPath196)"
           id="g192"><path
             id="path210"
             style="fill:url(#linearGradient208);fill-opacity:1;fill-rule:nonzero;stroke:none"
             d="m 4681.34,740.871 c -43.62,0 -78.99,-35.359 -78.99,-78.98 0,-43.621 35.37,-78.981 78.99,-78.981 43.63,0 78.99,35.36 78.99,78.981 0,43.621 -35.36,78.98 -78.99,78.98" /></g></g><g
         id="g212"><g
           clip-path="url(#clipPath218)"
           id="g214"><path
             id="path232"
             style="fill:url(#linearGradient230);fill-opacity:1;fill-rule:nonzero;stroke:none"
             d="m 5225.67,745.391 c -46.13,0 -83.54,-37.411 -83.54,-83.551 0,-46.141 37.41,-83.539 83.54,-83.539 46.15,0 83.56,37.398 83.56,83.539 0,46.14 -37.41,83.551 -83.56,83.551" /></g></g><g
         id="g234"><g
           clip-path="url(#clipPath240)"
           id="g236"><path
             id="path254"
             style="fill:url(#linearGradient252);fill-opacity:1;fill-rule:nonzero;stroke:none"
             d="m 5770.01,749.91 c -48.67,0 -88.11,-39.461 -88.11,-88.121 0,-48.648 39.44,-88.098 88.11,-88.098 48.66,0 88.1,39.45 88.1,88.098 0,48.66 -39.44,88.121 -88.1,88.121" /></g></g><g
         id="g256"><g
           clip-path="url(#clipPath262)"
           id="g258"><path
             id="path276"
             style="fill:url(#linearGradient274);fill-opacity:1;fill-rule:nonzero;stroke:none"
             d="m 6314.34,754.422 c -51.18,0 -92.67,-41.492 -92.67,-92.672 0,-51.18 41.49,-92.672 92.67,-92.672 51.17,0 92.67,41.492 92.67,92.672 0,51.18 -41.5,92.672 -92.67,92.672" /></g></g><g
         id="g278"><g
           clip-path="url(#clipPath284)"
           id="g280"><path
             id="path298"
             style="fill:url(#linearGradient296);fill-opacity:1;fill-rule:nonzero;stroke:none"
             d="m 6858.68,758.93 c -53.7,0 -97.24,-43.52 -97.24,-97.231 0,-53.699 43.54,-97.219 97.24,-97.219 53.69,0 97.23,43.52 97.23,97.219 0,53.711 -43.54,97.231 -97.23,97.231" /></g></g><g
         id="g300"><g
           clip-path="url(#clipPath306)"
           id="g302"><path
             id="path320"
             style="fill:url(#linearGradient318);fill-opacity:1;fill-rule:nonzero;stroke:none"
             d="m 7403,763.449 c -56.22,0 -101.78,-45.57 -101.78,-101.789 0,-56.23 45.56,-101.789 101.78,-101.789 56.23,0 101.79,45.559 101.79,101.789 0,56.219 -45.56,101.789 -101.79,101.789" /></g></g><g
         id="g322"><g
           clip-path="url(#clipPath328)"
           id="g324"><path
             id="path342"
             style="fill:url(#linearGradient340);fill-opacity:1;fill-rule:nonzero;stroke:none"
             d="m 7947.34,767.961 c -58.74,0 -106.36,-47.609 -106.36,-106.352 0,-58.73 47.62,-106.347 106.36,-106.347 58.74,0 106.35,47.617 106.35,106.347 0,58.743 -47.61,106.352 -106.35,106.352" /></g></g><g
         id="g344"><g
           clip-path="url(#clipPath350)"
           id="g346"><path
             id="path364"
             style="fill:url(#linearGradient362);fill-opacity:1;fill-rule:nonzero;stroke:none"
             d="m 8491.67,772.48 c -61.25,0 -110.91,-49.66 -110.91,-110.91 0,-61.261 49.66,-110.922 110.91,-110.922 61.26,0 110.91,49.661 110.91,110.922 0,61.25 -49.65,110.91 -110.91,110.91" /></g></g><g
         id="g366"><g
           clip-path="url(#clipPath372)"
           id="g368"><path
             id="path386"
             style="fill:url(#linearGradient384);fill-opacity:1;fill-rule:nonzero;stroke:none"
             d="m 9036,776.988 c -63.77,0 -115.47,-51.699 -115.47,-115.468 0,-63.782 51.7,-115.481 115.47,-115.481 63.77,0 115.47,51.699 115.47,115.481 0,63.769 -51.7,115.468 -115.47,115.468" /></g></g><g
         id="g388"><g
           clip-path="url(#clipPath394)"
           id="g390"><path
             id="path396"
             style="fill:#231f20;fill-opacity:1;fill-rule:nonzero;stroke:none"
             d="m 3254.09,1008.72 c -308.9,0 -521.57,129.97 -535.08,406.79 0,10.13 8.44,18.57 18.57,18.57 h 231.25 c 10.12,0 18.56,-8.44 20.25,-18.57 16.88,-129.97 77.65,-214.36 270.07,-214.36 153.6,0 238,45.56 238,156.97 0,266.69 -754.51,55.7 -754.51,524.95 0,221.11 172.17,359.52 474.31,359.52 275.14,0 465.87,-106.34 503,-356.15 0,-10.13 -6.75,-18.56 -16.88,-18.56 h -231.25 c -11.8,0 -20.25,6.74 -21.94,18.56 -15.19,104.66 -101.27,162.04 -243.06,162.04 -121.53,0 -209.3,-42.19 -209.3,-140.1 0,-251.5 757.88,-47.25 757.88,-514.81 0,-249.82 -192.42,-384.85 -501.31,-384.85" /><path
             id="path398"
             style="fill:#231f20;fill-opacity:1;fill-rule:nonzero;stroke:none"
             d="m 4363.03,1071.18 c 0,-10.13 -8.44,-21.95 -16.88,-25.33 -48.95,-15.19 -102.96,-27 -155.28,-27 -146.86,0 -286.96,74.27 -286.96,271.75 l 1.69,435.49 h -94.52 c -10.13,0 -18.57,8.44 -18.57,18.56 v 141.79 c 0,10.13 8.44,18.58 18.57,18.58 h 92.83 l -1.69,199.16 c 0,10.13 8.44,18.57 18.58,18.57 h 219.42 c 10.13,0 18.58,-8.44 18.58,-18.57 l -1.69,-199.16 h 189.04 c 10.13,0 18.56,-8.45 18.56,-18.58 v -141.79 c 0,-10.12 -8.43,-18.56 -18.56,-18.56 h -190.73 l 1.69,-428.73 c 0,-74.27 37.13,-97.9 92.83,-97.9 38.83,0 69.21,6.75 94.52,13.5 10.13,1.68 18.57,-5.06 18.57,-13.5 v -128.28" /><path
             id="path400"
             style="fill:#231f20;fill-opacity:1;fill-rule:nonzero;stroke:none"
             d="m 4839.03,1182.57 c 124.9,0 183.98,86.09 183.98,285.27 0,195.8 -60.77,290.32 -185.67,290.32 -128.28,-1.69 -187.36,-96.21 -187.36,-292.01 0,-195.8 62.46,-283.58 189.05,-283.58 z m 0,-168.79 c -283.57,0 -447.3,177.24 -447.3,454.06 0,276.81 163.73,459.12 447.3,459.12 283.57,0 443.93,-177.24 443.93,-454.05 0,-276.83 -160.36,-459.13 -443.93,-459.13" /><path
             id="path402"
             style="fill:#231f20;fill-opacity:1;fill-rule:nonzero;stroke:none"
             d="m 5785.93,1013.78 c -278.5,0 -443.92,177.24 -443.92,454.06 0,276.81 165.42,459.12 448.99,459.12 222.81,0 366.28,-124.91 388.23,-312.28 1.68,-10.12 -6.76,-18.56 -16.89,-18.56 h -197.48 c -10.14,0 -20.26,6.76 -21.94,18.56 -18.58,94.53 -81.03,141.79 -151.92,141.79 -128.29,-1.69 -189.05,-94.52 -189.05,-286.94 0,-199.18 62.45,-285.27 189.05,-286.96 84.4,-1.68 148.54,57.4 160.35,168.8 1.69,10.13 10.13,18.57 20.26,18.57 h 202.55 c 10.12,0 18.56,-8.44 16.88,-18.57 -20.26,-195.8 -178.92,-337.59 -405.11,-337.59" /><path
             id="path404"
             style="fill:#231f20;fill-opacity:1;fill-rule:nonzero;stroke:none"
             d="m 6709.22,1739.59 c -82.71,0 -172.17,-65.82 -197.48,-190.74 l 6.74,-494.56 c 0,-10.12 -8.43,-18.56 -18.56,-18.56 h -216.06 c -10.12,0 -18.57,8.44 -18.57,18.56 l 8.45,573.9 -8.45,570.52 c 0,10.12 8.45,18.57 18.57,18.57 h 216.06 c 10.13,0 18.56,-8.45 18.56,-18.57 l -5.07,-391.6 c 59.09,79.33 148.55,118.16 263.33,118.16 195.8,0 315.64,-116.48 310.57,-371.35 l -1.69,-185.67 6.76,-313.96 c 0,-10.12 -8.44,-18.56 -18.57,-18.56 H 6851 c -10.12,0 -18.56,8.44 -18.56,18.56 l 6.75,310.59 -1.69,219.42 c -1.68,104.66 -59.08,155.29 -128.28,155.29" /><path
             id="path406"
             style="fill:#231f20;fill-opacity:1;fill-rule:nonzero;stroke:none"
             d="m 7691.58,1008.72 c -308.9,0 -521.57,129.97 -535.08,406.79 0,10.13 8.44,18.57 18.57,18.57 h 231.25 c 10.12,0 18.56,-8.44 20.25,-18.57 16.88,-129.97 77.65,-214.36 270.07,-214.36 153.6,0 238,45.56 238,156.97 0,266.69 -754.51,55.7 -754.51,524.95 0,221.11 172.17,359.52 474.31,359.52 275.14,0 465.87,-106.34 503,-356.15 0,-10.13 -6.75,-18.56 -16.88,-18.56 h -231.25 c -11.8,0 -20.25,6.74 -21.94,18.56 -15.19,104.66 -101.27,162.04 -243.06,162.04 -121.53,0 -209.3,-42.19 -209.3,-140.1 0,-251.5 757.88,-47.25 757.88,-514.81 0,-249.82 -192.42,-384.85 -501.31,-384.85" /><path
             id="path408"
             style="fill:#231f20;fill-opacity:1;fill-rule:nonzero;stroke:none"
             d="m 8768.45,1008.72 c -308.89,0 -521.57,129.97 -535.07,406.79 0,10.13 8.43,18.57 18.56,18.57 h 231.25 c 10.13,0 18.56,-8.44 20.25,-18.57 16.89,-129.97 77.65,-214.36 270.07,-214.36 153.61,0 238,45.56 238,156.97 0,266.69 -754.5,55.7 -754.5,524.95 0,221.11 172.17,359.52 474.31,359.52 275.13,0 465.86,-106.34 502.99,-356.15 0,-10.13 -6.74,-18.56 -16.87,-18.56 h -231.25 c -11.81,0 -20.26,6.74 -21.95,18.56 -15.18,104.66 -101.26,162.04 -243.05,162.04 -121.53,0 -209.31,-42.19 -209.31,-140.1 0,-251.5 757.88,-47.25 757.88,-514.81 0,-249.82 -192.42,-384.85 -501.31,-384.85" /></g></g></g></g></svg>