<svg xmlns="http://www.w3.org/2000/svg" width="2500" height="2500" viewBox="0 0 192.756 192.756"><g fill-rule="evenodd" clip-rule="evenodd"><path fill="#fff" fill-opacity="0" d="M0 0h192.756v192.756H0V0z"/><path d="M143.053 56.371c-.475-1.667-.475-3.811-1.189-5.478-.477-2.857-1.43-5.715-2.381-8.335-.477-.952-.953-2.143-1.668-3.096-.238-.714-.715-1.19-.953-1.905-.951-1.19-1.189-2.143-1.904-3.334-.953-.952-1.668-2.143-2.381-3.096-.953-1.19-1.906-2.144-2.857-3.334-.715-.238-.953-1.19-1.668-1.667-.477-.476-1.191-.714-1.43-1.19-.951-.953-1.904-1.905-2.857-2.62-1.666-1.428-3.572-1.667-5-3.096l-1.191-.714c-1.189-.715-2.619-1.191-3.811-1.667-.951-.715-1.904-.953-3.096-1.429-.715-.238-1.666-.714-2.381-.953-.238 0-.477-.238-.715 0-2.143 0-3.811-.953-5.715-1.19-1.668 0-3.572-.238-5.239-.477h-2.143c-1.429.238-2.858.238-4.287.477-1.905.238-4.048.476-5.953 1.19-1.905.714-3.811 1.429-5.954 2.144-.238.238-.714.476-1.191.476-1.19.476-2.143 1.191-3.334 1.429-1.429.952-2.857 1.19-3.81 2.381-1.429.476-2.62 1.19-3.572 2.143-1.429.477-2.62 1.667-3.81 2.62-1.19 1.429-2.62 2.381-3.811 3.572-.238.715-.952 1.191-1.19 1.905-.477.715-1.19 1.429-1.667 2.144-.714.714-1.19 1.429-1.667 2.381-.715 1.191-1.429 2.144-1.905 3.334-.238.953-.714 1.667-1.19 2.382-.477.952-.953 2.143-1.191 3.096-.476 1.19-.953 2.381-1.191 3.572 0 .238-.476.714-.238 1.19-.476.953-.476 1.905-.714 2.858 0 1.667-.477 2.857-.477 4.525 0 1.19-.238 2.619-.238 4.048 0 2.144 0 4.287.238 6.43.238.953.238 1.905.477 2.857.714 2.381 1.19 5.001 2.143 7.382.476 1.667 1.191 3.334 1.905 5.001.476.715 1.19 1.667 1.429 2.62.714.953 1.191 2.144 2.143 3.096 0 .476.477.476.715.953.476.477.714 1.191 1.19 1.905.477.477.953 1.19 1.667 1.905.238.477.714.714.953 1.19.714.477 1.191.953 1.667 1.429.953.476 1.429 1.428 2.381 2.143 2.144 1.668 4.287 3.334 6.668 4.525 1.191.477 2.144 1.191 3.096 1.666 1.429.715 2.858 1.191 4.287 1.906 1.429 0 2.381.715 3.81.715.477 0 .715.238 1.429.238 1.667.475 3.334.951 5.001 1.189 2.858.238 5.715.715 8.573.238 3.81 0 7.382-.715 10.716-1.666l5.002-1.43c1.904-.953 3.811-1.666 5.715-2.619.477-.238.953-.715 1.43-.715 1.428-.715 2.619-1.904 3.809-2.857 1.906-.953 3.811-2.619 5.479-4.049 1.428-1.667 3.096-3.333 4.049-5.239 1.428-1.667 2.857-3.572 3.809-5.478 0 0 .238-.238.238-.476 0-.476.477-.953.477-1.429.477-1.429 1.43-2.619 1.906-4.048.475-.953.713-1.667.713-2.62.715-1.429 1.191-3.096 1.43-4.524.477-2.857 1.191-5.715 1.428-8.812.472-1.664-.004-3.807-.004-5.712zm-1.428 7.62c-.477 2.62-.953 5.001-1.668 7.383-.236 1.905-.951 3.334-1.428 5.239-.477.953-.715 2.143-1.43 3.096-.715 1.429-1.666 2.858-2.381 4.525a64.04 64.04 0 0 1-3.334 5.239c-.715.952-1.43 1.905-2.143 2.619-.953.953-1.668 2.144-2.857 2.858-1.43.953-2.859 1.904-4.287 3.096l-1.906 1.191c-.713.238-1.428.953-2.143 1.428-.715.477-1.43.715-1.904.953-1.906.953-3.811 1.904-5.955 2.619-1.666.715-3.334.715-5 1.43-2.143.477-4.049.715-6.191.953-2.144 0-4.287.475-6.43 0-1.19-.238-2.62-.238-4.049-.238-.476 0-.952-.238-1.429-.238-1.429-.477-2.857-.953-4.286-.953l-5.001-1.43c-.238-.238-.715-.238-1.191-.475-1.667-.953-3.572-1.668-5.001-2.621l-.476-.238c-1.191-.951-2.62-1.904-3.811-2.619-1.667-1.19-3.096-2.143-4.524-3.572-.953-.714-1.667-1.905-2.62-2.62-.714-.714-1.191-1.429-1.905-1.905-1.191-1.429-1.667-2.858-2.858-4.287-.952-1.19-1.429-2.619-2.143-4.048-.476-.952-.953-1.905-1.429-3.095-.476-1.667-.953-3.334-1.667-5.001-.238-1.19-.714-2.381-.714-3.572-.238-1.667-.715-3.572-.477-5.478-.238-.952-.238-2.144-.238-3.334 0-.238.238-.714.238-1.19-.238-.953.238-1.667 0-2.62 0-1.429.477-2.858.477-4.287.238-.953.238-2.144.476-3.096.238-.477.238-1.191.714-1.667 0-1.191.477-1.905.715-3.096a21.651 21.651 0 0 1 1.667-3.334c.715-1.191 1.191-2.382 1.667-3.572.952-1.429 1.429-2.858 2.619-4.048.715-.953 1.667-2.143 2.381-3.096.477-.952 1.429-1.429 2.144-2.143 1.429-1.429 2.858-2.62 4.524-3.572 1.191-.715 2.143-1.429 3.096-2.144.238-.238.714-.238.952-.477 1.667-.952 3.334-2.143 5.239-3.096 2.382-1.19 5.001-1.905 7.621-2.857.953 0 1.905-.238 2.857-.715.715 0 1.429-.238 2.144-.476.953-.238 1.667-.238 2.62-.476 1.667-.238 3.334.238 5.239.238.714 0 1.19-.238 1.905-.238h1.43c1.428 0 2.619.238 3.809.476.715.238 1.43.238 1.906.476.953 0 1.666.477 2.381.715.953.238 1.906.238 2.619.476 2.145.953 4.287 1.667 6.193 2.62 1.666 1.191 3.334 1.667 4.762 2.857 1.191.715 2.381 1.667 3.572 2.62.477.238.953.952 1.43 1.429.713.714 1.666 1.429 2.381 2.143.715.476 1.191 1.191 1.904 1.905.477.715.953 1.429 1.668 2.144 1.189 1.667 2.381 3.334 3.334 5.239.951.952 1.666 2.381 2.143 3.572.715 1.905 1.668 3.81 2.145 5.715.475 1.667 1.189 3.333 1.428 5 .238 1.429.477 2.858.477 4.525.238 1.191.238 2.381.238 3.81-.001.953-.001 2.383-.239 3.335z" fill="#a5333a"/><path d="M139.721 57.799c0-1.19 0-2.382-.238-3.334-.477-3.811-1.191-7.382-2.621-10.716-.238-.714-.477-1.429-.951-2.143-.238-.715-.715-1.429-1.191-1.905v-.238c-1.904-2.381-2.857-5.239-5-7.382-2.383-2.381-4.525-5.001-7.383-6.668-1.668-1.667-3.572-2.858-5.479-4.048-1.189-.476-2.143-.953-3.096-1.667-.951-.477-2.143-.714-3.096-1.19-1.904-.715-4.047-.715-5.953-1.429-1.191-.238-2.381-.238-3.811-.476h-5.715c-1.429-.238-3.096-.238-4.286.238-.953 0-1.905.238-2.62.238-1.429 0-2.62.714-4.048.714-.477.238-.953.477-1.429.477-1.191.714-2.382.714-3.572 1.19-.953 0-1.667.714-2.62.953-.476.714-1.429.477-2.143 1.191-2.382 1.19-4.525 3.096-7.145 4.048-1.905 1.667-4.286 3.096-5.715 5.239-.953.715-1.429 1.667-2.143 2.382-.715.714-.715 1.667-1.429 2.381-.477 1.191-1.429 2.144-1.667 3.334-.477.477-.477.953-.953 1.429-.238.714-.714 1.667-1.19 2.62-.238.714-.715 1.19-.715 1.905-.476.952-.952 1.905-1.19 3.096-.476.714-.476 1.429-.714 2.143-.477 2.143-1.191 4.048-1.191 6.43-.476 1.667-.238 3.333-.238 5.239-.238.477 0 .953 0 1.667.238.953.238 1.905.238 3.096l.238.238c.238.714.238 1.667.477 2.62.238 1.667.714 3.334 1.19 4.763.953 1.905 1.429 3.811 2.144 5.477.476 1.191.952 2.144 1.667 3.096.714 1.905 2.144 3.572 3.096 5.477 1.429 1.667 3.096 3.334 4.524 4.763 2.144 2.382 4.763 4.048 7.145 5.478 2.143 1.43 4.286 2.143 6.668 3.334 1.429.477 2.62.953 4.048 1.43 1.191.236 2.143.951 3.572.951.952 0 1.667.477 2.62.477 3.334.477 6.668.715 10.001.238 1.668-.238 3.334-.238 5.002-.477a42.572 42.572 0 0 0 8.334-2.143c1.43-.953 3.096-1.43 4.525-2.143 2.619-1.191 5-2.383 7.383-4.288 1.189-.715 2.143-1.905 3.334-2.858 1.428-1.667 2.857-3.096 4.285-4.763 0-.238.238-.714.477-.953 1.191-1.429 1.906-2.857 3.096-4.048.238-.953 1.191-1.905 1.43-2.857.238-.953.713-1.667 1.189-2.62.477-1.191.715-2.62 1.191-4.048.477-1.905 1.191-3.811 1.191-5.954.238-1.905.713-3.811.477-5.716 0-1.43.236-2.859 0-4.288zm-1.668 9.05v1.191c-.238 1.19-.477 2.381-.953 3.572-.715 2.619-1.428 5.477-2.619 8.096l-2.143 3.572c-1.191 1.667-2.383 3.334-3.334 5.001-.477.477-1.191.953-1.668 1.429-.715 1.429-2.143 2.381-3.334 3.333-1.189 1.429-2.857 2.143-4.285 3.334-1.668 1.429-3.572 1.905-5.479 3.097-.715.477-1.666.715-2.619 1.428-.715 0-1.191.477-2.143.715-1.906.715-4.049.953-6.193 1.191-1.189.238-2.381.713-3.57.713-1.191.238-2.145.238-3.097.238-.953 0-1.667.238-2.62 0-.714-.238-1.667 0-2.619 0-1.905 0-3.811 0-5.478-.713-1.19-.238-2.62-.715-4.049-.953-1.667-.715-3.333-1.191-5-1.904-2.144-.953-4.287-1.906-6.192-3.573-1.19-.953-2.381-1.429-3.572-2.381-1.429-1.191-3.096-2.381-4.048-4.048-.715-.476-1.191-1.191-1.667-1.905 0-.238-.477-.238-.477-.714-.953-1.429-1.905-2.62-2.619-4.048-.477-.238-.477-.953-.715-1.191-.953-1.667-1.905-3.334-2.62-5.239-.476-.952-.714-2.143-1.19-3.096a61.545 61.545 0 0 1-.715-3.096c0-.477-.238-.714-.476-1.19-.476-1.905-.476-3.811-.714-5.954-.238-.952-.476-1.667-.476-2.619 0-1.191 0-2.62.238-3.811 0-1.667.714-3.096.952-5.001.476-1.667.714-3.572 1.667-5.239 0-.477.477-.953.477-1.667.952-1.667 1.19-3.334 2.143-5.001.714-1.429 1.905-2.858 2.381-4.287.476-1.19 1.429-2.143 2.144-3.334.714-.714 1.429-1.667 2.381-2.144l1.429-1.429c1.667-.952 2.857-2.619 4.525-3.572.952-.238 1.429-.953 2.143-1.191 1.19-.952 2.381-1.429 3.572-1.905 1.667-.714 3.096-1.905 5.001-2.143 1.429-.476 2.858-.714 4.049-.953l2.857-.714c1.19 0 2.381-.238 3.572-.476 1.905-.238 3.81-.238 5.715-.477 1.19.238 2.62.238 3.81.238l2.383.477c.713-.238 1.428 0 2.143.238 2.381.238 4.525.714 6.43 1.667 1.191.714 2.381 1.191 3.572 1.905 2.381.715 4.525 2.382 6.668 4.049.953.953 1.904 1.667 2.857 2.619l5.24 5.239c.475.953 1.189 1.905 1.666 2.62.953 1.429 2.143 2.858 2.857 4.287 1.43 2.62 2.143 5.477 2.857 8.335 1.43 3.572 1.43 7.858 1.43 11.907-.237 1.667-.237 3.572-.475 5.477z" fill="#a5333a"/><path d="M80.661 21.125c0 .714 0 1.429-.238 2.144-.238.238-.476.476-.714.476 0-.238-.238 0-.238-.238s-.238-.477-.715-.715c-.238 0-.714 0-.952.238-.238.477 0 .714 0 .952.952.953 2.143 0 3.334-.238.238.238.714.476.953.714.714.715.952 1.429.714 2.381-.477.953-1.429 2.143-2.62 1.905-.238.238-.714-.238-.953 0 0 .238 0 .476-.238.714-.238 0-.476 0-.714-.238s.238-.714 0-1.19c0-.477-.476-.953.238-1.429.476 0 .953.476 1.667.952.476 0 .953-.238 1.19-.714v-.714c-.238-.238-.476-.476-.714-.476-.714.238-1.19.714-1.905.714-.714 0-1.429-.238-1.905-.953-.238-.714-.714-1.429-.476-2.143.238-.477.952-1.191 1.429-1.429.476-.238.952 0 1.429 0 .713.002.713-1.189 1.428-.713zM115.906 23.745c.238.238.238.714.713.953.238 0 .477-.238.715.238-.238.476-.951.714-1.189.952l-.953.715s-.238 0-.238-.238c-.238-.477.477-.953.238-1.429-.238-.238-.477-.715-.715-.715s-.477 0-.715.238c-.475.953.477 1.429.715 2.144.238.238.477.714.715 1.19 0 .714-.238 1.429-.715 1.905-.715.476-1.666.714-2.619.476-.477-.238-.953-.476-1.43-.953l-.477-.714c-.236-.238-.713 0-.951-.238 0-.238 0-.477.238-.715l1.189-1.429h.477c.238 0 .238.238.238.477 0 .476-.477.714-.477 1.19 0 .477.715.953.953 1.19h.953c.477-.238.715-.714.477-.952 0-.714-.953-1.191-1.191-1.905 0-.714-.238-1.429.238-1.905.715-.952 1.666-1.19 2.857-1.19.239.239.716.477.954.715zM71.85 25.888c0 .715-.476 1.191 0 1.667.476.953 1.429 1.667 1.667 2.62.476.238.476.714.953.953.476.238 1.19-.477 1.19.238 0 .477-.714.477-.953.714-.476.476-1.19.953-1.429 1.429 0 .238-.238.238-.476.238-.238-.714.238-1.429 0-1.905-.238-.477-.715-.715-.715-1.191a13.649 13.649 0 0 0-2.619-2.619c-.238 0-.715.238-.953 0 0-.238.238-.477.477-.714.715-.477 1.429-.953 2.144-1.667.238-.001.475-.001.714.237zM118.525 28.032c.477.238.477.714.477 1.429 0 .477-.715.953-1.191.953s-1.191 0-1.428-.476c-.238-.477 0-1.191.236-1.429.238-.476.477-.714.715-.714.477-.002.953-.002 1.191.237zM65.896 31.604v.714c-.238 0-.477.238-.714.238-.238-.238-.238-.476-.476-.238s-.238.476-.238.476c.238.238.476.238.714.238.953 0 1.429-1.19 2.381-.953.476 0 .952.476 1.19.476.477.715 1.429.953 1.429 1.905 0 .477.238.953 0 1.429-.476.477-.953 1.429-1.905 1.667 0 0-.238-.238-.476 0s0 .715-.477.715c-.476.238-.714-.477-.953-.953-.238-.238-.238-.714-.476-1.19 0-.238.238-.238.238-.238.953 0 1.905.953 2.619 0 .238-.238.238-.476.238-.714-.238-.476-.477-.953-.953-.953-1.19 0-1.905.715-2.857.953-.714 0-1.429-.476-1.905-.953a3.305 3.305 0 0 1 0-2.143c.238-.476.953-.476.953-1.191.238 0 .238-.476.477-.238.714 0 .714.715 1.191.953zM98.998 32.556c0 .477 0 .953-.238 1.667h-.238c-.715 0-.477-1.19-1.43-1.19-.714.953-.476 2.381-.476 3.572.238.238.238.714.714.952 0 .238 0 .238-.238.477-.476 0-.714-.238-1.19-.238-.477 0-1.191 0-1.667-.238v-.238c1.19-.714.952-2.143.952-3.333 0-.238 0-.477-.238-.477-.476-.238-.714.238-1.191.238 0 .238-.238.238-.476 0s0-.476 0-.953c0-.238 0-.476.238-.476 1.19-.238 2.62 0 3.81-.238.477.237 1.43-.001 1.668.475zM104.951 33.747c.238.238.477.238.715.476 0 .715-.953.238-1.191.715-.238 1.19-1.428 2.381-.477 3.81 0 0 0 .238-.238.238-.477 0-.951-.238-1.189-.476-.477-.238-.953-.238-1.191-.476 0-.477.477-.477.953-.715.715-.238.715-1.19.951-1.667 0-.476.238-.952.238-1.429-.238-.238-.713-.476-.475-.714.236-.476.713-.238.951-.238.238.476.715.238.953.476zM126.146 32.08c-.238-.238-.477-.238-.715-.238-1.668.476-3.334 1.429-5.002 1.905-.475 0-.951.238-1.428 0-.238 0-.477-.238-.715 0v.476c.715.477 1.43 1.191 1.904 1.429.238-.238.238-.476.477-.714.953 0 1.43.714 1.906 1.429v.714c-.238.238-.477.238-.715.238 0 0-.238-.238-.477 0v.238c.477.238.953.715 1.191 1.191.238.238.477.714.713.714.238-.238.238-.714.238-.953 0-1.191.715-2.143.953-3.334.241-.952 1.432-1.904 1.67-3.095zm-2.859 3.096c-.475 0-.951-.476-.951-.953.238-.238.715-.238.951-.476.477 0 .477.238.477.476 0 .477-.239.715-.477.953zM88.281 36.128c-.476-.477-.714-1.19-1.429-1.667l-.715-.714c-.238 0-.714-.238-.952 0-.714.476-.238 1.429 0 1.905l-.238 2.144c0 .477-.238 1.19-.476 1.905.238.238.952 0 1.19 0 .238-.238.714-.477.714-.715s-.238-.238-.238-.238c-.238 0-.238-.238-.238-.476s.476-.477.714-.715.714-.476.953-.238c.238 0 .238.477.238.477 0 .477-.477.953 0 .953.714-.238 1.19-.476 1.905-.714v-.238c-.475-.478-.951-.954-1.428-1.669zm-1.428.239c-.238.238-.477.238-.715.238-.238-.477-.476-1.191-.238-1.667.714-.238.714.714.953.952.237.238.237.477 0 .477zM60.895 36.128c0 .238-.238.477-.238.953.238.714.953 1.429 1.667 1.667 1.191.714 2.382 1.667 3.811 2.381v.477c-.477.476-1.429.238-2.382.238-1.19 0-2.619.238-3.572.476.238.477.714.953 1.191.953.476.476.952.714 1.667.714.238 0 .476-.476.714-.476.238.238.238.476.238.476-.714.953-.952 2.144-1.429 3.096-.238.238-.477.238-.477.238-.238-.477 0-.715 0-1.191 0-.714-.952-1.19-1.429-1.429-.953-.715-1.905-1.191-3.096-1.191-.477 0-.477.476-.953.476-.476-.238-.238-.714-.238-.952.476-.715.952-1.429 1.667-1.667 1.429-.477 2.619-.714 4.048-.477.238-.238.477 0 .715-.238-.477-.477-1.191-.953-1.667-1.191-.477-.238-.953-.477-1.429-.477-.238 0-.238.238-.714.238 0-.238-.238-.238-.238-.476s.238-.238.238-.476c.477-.953.477-1.905 1.191-2.382.239.002.477.002.715.24zM111.857 38.272c0-.238 0-.953-.477-.953-.477.238-1.191.715-1.666 1.191-.715.714-1.43 1.191-2.383 1.667-.238.238-.477 0-.951.238l.238.238c.236 0 .475.238.713.476.477 0 .715.714 1.191.238 0-.238-.238-.477-.238-.477.953-.476 1.43.477 2.143.953 0 0 .238.238.238.476-.477 0-.715 0-.951-.238l-.238.238c0 .477.475.715.951.953 0 .238.477.476.953.714.238-.238.238-.238.238-.476-.238-.714-.238-1.905 0-2.62.238-.238 0-.476.238-.714-.237-.714.24-1.19.001-1.904zm-1.191 1.905c-.238 0-.477 0-.715-.238-.236 0 0-.238 0-.476.238-.238.715-.477.953-.714 0 .475.239 1.189-.238 1.428zM130.67 39.224s.238 0 .477.238c.477.476 1.43.953 1.43 1.667-.238.714-.477 1.19-.953 1.429-.477 0-.953.238-1.43 0 0-.238-.238-.476 0-.714s.953 0 1.191-.476c0-.477-.238-.953-.715-.953-.477-.477-1.189-.238-1.904 0l-1.43.714c-.477.477-.715.953-.477 1.429 0 .238 0 .715.238.715.477.476 1.43.238 1.668.714 0 .477-.477.477-.715.715-.477 0-1.43 0-1.904-.238-.238-.714-1.191-1.19-.953-1.905-.238-1.667 1.428-2.857 2.619-3.572.954-.239 1.907-.239 2.858.237zM81.375 40.177c-.238-.238-.476 0-.714.238s-.238.476-.238.714-.238.477-.476.714c-.238 0-.714 0-.714-.238-.477-.715 0-1.667-.477-2.144-.476-.238-.952-.714-1.429-.714-.714 0-1.429.238-1.667.953-.477.714-1.19.714-1.905 1.19 0 .238.238.477.238.477.477 0 .953.238 1.19.476.477.714.953 1.429 1.429 1.905s0 1.191.476 1.667h.477l1.429-1.191c.238-.476 0-.476-.238-.714s-.476 0-.714-.238c.952-.477 1.905-.238 2.619-.477a2.856 2.856 0 0 0 1.19-1.19c0-.476 0-1.19-.476-1.428zm-4.048 1.429c-.476 0-.714-.715-1.19-.953l.476-.477c.476 0 .714.238.953.477-.001.238-.001.476-.239.953zM118.525 43.987c.715.477.953 1.191 1.191 1.905.238.238.475.714.238.953-.238.238-.715.238-.953.238s0-.238 0-.238c-.238-.714-.238-1.429-.953-1.429 0 .238-.953.238-.715.953.238.238.477.238.477.476 0 .477-.238.477-.477.714h-.238c-.238-.476-.713-.714-.713-.953 0-.238-.238-.238-.238-.238-.238.476-.715.476-.477.953.238.476.238.953.715 1.19h.713c.238 0 .715-.238.953.238 0 .238-.238.238-.477.477-.477 0-1.189.477-1.666.238-.715-.715-.715-1.429-1.191-1.905v-.238c-.477-.477-.953-.715-1.428-.953v-.477c.236-.476.713 0 1.189-.238.715-.238 1.668-.714 2.381-1.19.238 0 .477-.477.715-.714 0-.238-.238-.476 0-.714 0-.238.238-.238.238-.238.478.476.478.952.716 1.19zM85.423 44.702s.238 0 .238.238-.238.238-.476.238-.953.238-1.429 0c0-.238-.238-.476 0-.476.477-.477 1.191 0 1.667 0zM71.611 45.892c.238.714-.238.953-.714 1.191-.238.476-.238 1.191 0 1.667.238.477.477.953 1.19 1.191l.953-.238c.238-.238.477-.477.477-.715-.477-.238-.953 0-1.191-.476 0-.476.238-.953.477-1.19.476 0 1.19 0 1.667.238 0 .238.476.238.476.477v.238c-.238.714-.238 1.429-.476 2.143-.477.476-1.191.476-1.667.953-.477.238-.953 0-1.429 0-.477-.715-1.667-.953-1.667-1.905-.715-1.19-.238-2.62.476-3.572.476-.24 1.191-.478 1.428-.002zM95.664 46.845c.238.477-.238.953-.477 1.429h-.238c-.238-.238-.238-.715-.238-1.191-.238-.238-.476-.714-.476-.953l.238-.238c.714 0 .952.477 1.191.953zM93.044 46.13c.477.238.477.714.477 1.191-.238 0-.477.238-.715 0s-.238-.715-.714-.715c0 0-.238 0-.476-.238v-.238c.476-.238.953-.238 1.429-.238v.238h-.001zM97.568 46.369c.238.238.238.714.238.953 0 .238-.238.714-.477.714s0-.477-.476-.714c-.238 0-.238.476-.714.238v-.714c0-.238.238-.476.714-.714.239-.002.477.237.715.237zM92.091 47.083c0 .238-.238.238-.238.476-.238.238-.238.953-.714.715-.477-.477.238-.953.238-1.429.238 0 .714-.239.714.238zM86.376 47.559c.238 0 .238.238.238.238-.238.238-.477.238-.714.238-.477.238-1.19 0-1.667.238-1.191-.238-2.382 0-3.572 0-.238 0-.238 0-.476-.238 0 0 0-.238.238-.238.953-.238 1.905-.238 2.858-.238h1.429c.476 0 1.19-.238 1.666 0zM55.894 48.512c.238.476.953.238.953.953-.238.238-.714 0-.953.238-.477.238-1.19.476-1.19 1.19 0 .238.238.477.476.477.238.238.953.476 1.191 0 0-.238-.477-.477-.238-.715 0-.238.238-.238.238-.476.238 0 .476.238.952.238.238 0 .953-.238 1.191.238 0 .477-.714.715-1.191 1.191h.238c.715 0 1.429.238 2.143.476v-1.667c.238-.714-.953-1.19-.714-1.905 0-.238.238-.238.477-.238.714.238 1.19.953 1.429 1.429.714.714.238 1.429-.238 2.143-.238.953 0 2.143-.476 2.857v.714c-.238.238-.477.238-.477.238-.714-.477-.714-1.429-1.667-1.667-.953-.476-2.144-.714-3.334-.953-.715-.238-.715.953-1.429.714-.476-.714-.238-1.667-.238-2.381.238-1.191.715-1.905.953-3.096.238 0 .477 0 .477-.238.474.002.95.24 1.427.24zM88.758 48.512c.238.238.238.238 0 .238-.477.477-1.191.238-1.667.477-.953 0-1.905.238-2.857.238-.238 0-.238-.238-.238-.477.238-.238.715 0 1.191-.238 1.189-.238 2.38-.238 3.571-.238zM89.234 49.464l-.238.238c-.714.476-1.667 1.19-2.858 1.429-.238 0-.476-.238-.476-.477v-.238c1.191-.238 2.144-.714 3.096-1.191 0 .001.238.001.476.239zM136.385 49.703c-.236-.238-.475-.477-.713-.477-.477.238-1.191 0-1.906 0-.238-.238-.477 0-.713 0-.953-.477-2.145-.238-3.098-.714l-.951-.953v-.238c-.238-.238-.477-.238-.715 0 0 .238-.477.714 0 1.19s.477 1.191.715 1.667c0 .238.238.238.477.238s.238-.238.238-.476l.236-.238c.477 0 .715.238.953.476s0 .953 0 1.429c0 .238.238.476.238.952-.238.238-.238.238-.477.238-.477 0-.477-.477-.951-.477-.238 0-.238.238-.238.477.238.476.238.953.475 1.19 0 .477-.236.953 0 1.429 0 .238.238.477.477.477.715-.714.953-1.429 1.43-2.143s1.428-1.191 2.143-1.905c.477-.238.953-.953 1.43-1.191.238-.238.477-.238.715-.476.235.001.235-.237.235-.475zm-4.047 1.667c-.238 0-.238-.238-.238-.238l-.238-.953c.477-.476.953-.238 1.428 0-.001.476-.476.952-.952 1.191zM104.236 58.514c.238.238-.238.476 0 .953 0 .238 0 .476-.238.714-.477 0-.715-.714-1.428-.476v.238c-.238.953-.477 1.905-.477 2.858 0 .477.477.477.477.714s0 .476-.238.476-.477 0-.715-.238c-.477.238-.953.477-1.43.238-.236 0-.236-.238-.236-.476.236-.238.713-.476.713-.953 0-.953.238-1.905 0-2.857-.238-.238-.477 0-.713 0-.238 0-.238.714-.715.714l-.238-.238v-1.667h4.523c.239 0 .477-.238.715 0zM118.287 58.99v1.191c-.238.238-.477 0-.715 0s0-.238-.238-.238c0-.476-.238-.476-.715-.476 0 0-.236 0-.236.238 0 1.19 1.428.714 1.666 1.667.477.714.238 1.667-.238 2.143s-1.666.476-2.619.238c-.238 0-.715.477-1.191 0v-.476c.238-.477.715-.715.953-1.191h.238c.238.715.715 1.429 1.428 1.191.238 0 .715 0 .715-.238.238-.238 0-.477 0-.714-.477-.715-1.666-.715-2.143-1.429 0-.714 0-1.429.477-1.905.715-.476 1.666-.714 2.381-.238l.237.237zM81.613 58.752v1.429c0 .238-.476.238-.476 0-.477 0-.238-.476-.715-.476-.238 0-.476 0-.714.238-.238 0-.238.238-.238.477 0 .238.238 0 .476 0 .476.476.714.714.476 1.19 0 .476-.476.715-.952.715-.238.238 0 .714.238.953.953.238 1.429-.715 2.143-.953.239 0 .239 0 .239.238 0 .477 0 .953-.477 1.19-1.191.477-2.62.238-4.048.238-.238 0-.238-.238-.238-.476.953-.953.477-2.381.477-3.572v-.953l.238-.238h3.571zM95.902 58.99v.477c-.238 0-.477.238-.715.476.238.953-.238 1.667-.238 2.62.238.238.714.238.714.477.238.476 0 .714-.238.714-.476.238-1.19.238-1.667.238-.238.238-.714.238-.953 0-.238-.238-.238-.476-.238-.714.238-.477.714-.238.953-.477.238-.953.238-1.905.238-2.858 0-.238-.476-.238-.714-.476s-.238-.477-.238-.477c.953-.238 1.905-.476 2.858-.238.238 0 .238.238.238.238zM72.087 58.99c0 .238 0 .477-.238.477l-.238.238c0 .714.238 1.19.476 1.667.238.238.477 0 .715-.238l1.19-2.144c.477-.476 1.19-.238 1.429-.238.238.238.238.238.238.476-1.19 1.429-2.381 3.096-3.334 4.524-.238 0-.476 0-.476-.238v-.476l-1.429-3.096c-.238-.238-.476-.238-.476-.238-.238-.238-.238-.477-.238-.715.238-.238.476-.238.952-.238.477.001 1.192-.237 1.429.239zM53.274 59.466c1.191.476 2.381.238 3.572.238.714 0 1.429.238 1.905-.477 0 0 0-.238.238-.238s.477-.238.714 0v.238c0 .953-.238 1.905 0 2.857 0 .239 0 .477-.238.715-.477 0-.715-.953-1.429-.953-.953-.238-2.382-.238-3.572-.238-.714 0-1.191.476-1.667.953h-.477v-.477c0-.714-.476-1.667-.238-2.381 0-.477 0-.715.476-.953.478.002.478.716.716.716zM137.576 57.561c-.477-.714-.477.238-.715.477-.713.238-1.428.238-1.904.238-1.191-.477-2.143.238-3.334 0-.238 0-.477 0-.715-.238 0-.238-.238-.477-.477-.477s-.238 0-.238.238c.238.714.238 1.667.238 2.62 0 .714.715.953.715 1.429.238.477.477.714.953.953.477.477 1.428.477 2.143.477.715-.238 1.43-.477 2.143-.953l.715-.953s0-.477.238-.715c0-.476.477-.952.238-1.667 0-.476.238-.952 0-1.429zm-1.428 3.334c-.715.953-2.383.714-3.572.714-.477-.238-.953-.476-.953-.953-.238-.238-.238-.476 0-.476.477-.476 1.191-.476 1.904-.238.477 0 1.191.238 1.668 0 .238 0 .715 0 .953.238 0 .239.237.477 0 .715zM90.663 62.085c-.477 0-.477.715-.714.953-.476-.238-1.19-.238-1.429-.714 0-.715.715-1.191.477-1.905 0-.714-.238-1.429-.953-1.667-.714-.238-1.667 0-2.381-.238-.476.238-.714.238-.952.476 0 .238 0 .477.238.715.238.952 0 2.143 0 3.096 0 .477-.476.714-.238.952.238.477.714 0 1.19.238h.476c.238-.238.238-.714.238-.952 0-.477.476-.238.714-.238.714.238 1.19.952 1.905 1.19.476 0 .952.238 1.429-.238.238-.476.715-.952.477-1.428-.001-.24-.239-.477-.477-.24zm-3.334-1.19c0 .477-.476.477-.714.477-.238-.238 0-.477-.238-.715v-.476c.477-.238.953-.238 1.191 0-.001.238-.001.714-.239.714zM111.857 63.277c-.715-1.429-1.668-2.62-2.143-4.049 0-.238-.238-.476-.477-.476s-.477 0-.477.238c-.238 1.667-1.191 2.858-2.143 4.287l-.715.714v.238h2.143s.238 0 .238-.238-.238-.238-.238-.238c-.238 0 0-.238 0-.238.238-.476.715-.714 1.43-.476.238 0 .951 0 .951.476 0 .238-.238 0-.477 0 0 .238-.236.238-.236.476s.236.477.475.477c.715-.238 1.43-.238 2.145-.477.001-.239-.237-.476-.476-.714zm-2.142-1.905c-.238.238-.477.238-.715.238s-.238-.476-.238-.714.238-.476.477-.476.477 0 .477.238l-.001.714zM59.228 65.896c.238 0 .714 0 .714.238 0 .476.238.953.238 1.429.238.953.238 2.144.714 2.857.238.238.477.715.477.953-.238.238-.238.476-.477.476-.953 0-1.667-.238-2.619-.238-.953.476-1.667.714-2.858.714 0 0-.238 0-.238.238s0 .476-.238.714c-.476 0-.476-.476-.714-.714-.476-.952-1.191-1.667-.953-2.62.238-.238.238-.238.477-.238.476 0 .714.714 1.429.476h1.667c.714-.476 1.667-.238 2.381-.953 0-1.429-1.19-2.143-2.144-3.096 0-.477.477-.238.477-.477.715.003 1.19.241 1.667.241zM130.908 67.325c1.191.715 2.619.715 3.811.953.477 0 1.191.476 1.43 0 .236-.238.236-.476.475-.714.238 0 .477.238.715.477-.238.476-.477 1.19-.715 1.667-.238.952-.713 1.905-.713 2.857 0 .238-.238.476-.477.476-.477 0-1.191 0-1.668-.238-.238 0-.477-.238-.238-.477.477-.714 1.43-.714 1.906-1.429-.238-.714-.953-.714-1.43-.953-.238.476.477.953-.238 1.191-.477 0-.951-.477-1.428-.477-.238 0-.238 0-.477-.238 0-.238 0-.476.238-.714.238 0 .238 0 .238-.238s0-.477-.238-.477c-.715-.238-1.43 0-1.668.477-.238.714-.477 1.667.238 2.381 0 0 0 .238-.238.238h-.238l-1.428-.953c-.238-.238 0-.715 0-.953.238-.953.477-1.905.953-2.62 0-.476.236-.953.475-1.19.715.002.239.716.715.954zM75.183 73.04v.238c-.476.953-.714 1.667-.714 2.858h.238c.714-.238.953-.715 1.667-.953l.714.714c.238.477.715.714.477 1.19-.477.238-.477-.238-.953-.238-.714.238-1.429.714-2.143 1.191-.238.476-.953.714-1.429.952 0 0-.476 0-.476-.238 0-1.19.714-2.143.476-3.334 0-.238-.238-.238-.476-.238-.477.476-1.19 1.191-1.429 1.905-.238 0-.238 0-.477-.238-.238-.238-.238-.714-.476-.953 0-.238-.238-.477-.238-.714.714 0 1.429-.476 2.143-.714.477-.477 1.191-.477 1.667-1.191 0 0 .238-.238.238-.476.238-.238-.238-.238 0-.477h.477l.714.716zM117.334 73.278c0 .238.238.477 0 .477-.477.238-1.189.238-1.666.714-.238.238-.477.238-.715.714.238.238.715.476 1.191.476.475-.238-.238-.952.475-.952.477 0 .953.476 1.191.952v.238c-.238.238-.715 0-.715.238s-.238.476 0 .714.477.238.715.238c.477-.238.477-.476.715-.714.238-.715-.238-.953-.477-1.429 0 0 0-.238.238-.476.715.238 1.191.952 1.904 1.19 0 .238-.236.238-.236.477-.953 1.19-1.668 2.381-2.859 3.572h-.477c-.236-.238 0-.476 0-.953-.236-.714-.951-1.667-1.904-2.143-.477-.238-.953.238-1.191.476-.236.238-.475.238-.713 0-.238 0-.238-.238-.238-.476.238-.476.951-.714 1.189-1.191.477-.952 1.191-1.667 1.906-2.619.478-.237.952.477 1.667.477zM128.051 74.708v.476c.715.953 1.668 1.667 2.619 1.905.715.715 1.668.953 2.383 1.429.236.238.475.476.475.714-.951.953-2.381.476-3.334.476h-.475c-.238.239 0 .477 0 .477.475.953.713 1.905 1.189 2.62 0 .238-.238.238-.238.476-.715 0-1.428-.476-2.143-.953-.477 0-.715-.476-.953-.476-.953-.238-1.428-.953-2.381-.953-.477.238-.715.238-.953 0 0-.714.238-1.191.715-1.667.238-.238 0-.952.477-.714.715.238.477.953.953.953.475.238 1.189.238 1.666.714 0 0 .238 0 .238-.238.238-.715-.238-1.191-.238-1.905 0-.238.238-.238.477-.238.238-.238.477 0 .477-.238s-.477-.238-.477-.477c-.715 0-1.43-.476-1.668.238-.238 0-.475 0-.713-.238.238-.238.238-.476.475-.714.238-.477.238-1.429.953-1.905.237-.001.237.238.476.238zM65.658 80.661c-.238-.714-.238-1.667-1.19-2.143-.477.476 0 1.19-.477 1.429-.238.238-.476.238-.714 0-.714-.239-.238-.953-.953-1.191-.238-.476-.714-.714-.238-1.19.238-.238.238-.714.715-.714.238 0 .238.238.238.476 0 0 .238.477.476.238 0 0 .238 0 .238-.238 0-.714-.714-1.19-.952-1.905-.238-.476-.238-1.19-.715-1.19-.476 0-.238.714-.238.953-.476.714-.953 1.429-1.667 1.905-.477.715-.953 1.429-1.667 2.144l-.476.953c-.238.238-.238.476 0 .714 1.667.476 3.334.238 5.239.238.714 0 1.429-.238 2.143.238 0 .238.238.477.477.477 0 .238.238.238.476 0-.001-.48-.477-.718-.715-1.194zm-4.049-.476c-.476-.238-.953 0-1.429 0-.238-.238-.238-.238-.238-.477.477-.238.953-1.19 1.429-.476.238.238.238.476.476.715l-.238.238zM81.137 79.708c0-.238-.238-.476-.477-.238-.953.238-1.905.953-2.857 1.429-.477 0-.953.476-1.429.476-.477.238-.953 0-1.191 0-.238 0-.238 0-.238.238.714.476 1.191 1.191 1.667 1.905.476-.238.238-.714.476-.953.477-.238.715 0 .953 0 .476.477 1.19.953 1.19 1.667h-.238c0 .238-.476.477-.238.714l.953.238c.238.238.477.953 1.191.953v-.477c-.953-1.904.476-3.808.238-5.952zm-1.429 2.62c-.238 0-.476-.476-.714-.714 0 0-.238-.238 0-.238.238-.238.714-.714 1.191-.714v.238c0 .475-.239.713-.477 1.428zM115.191 81.137c-1.43-.238-2.857-.714-4.287-1.19-.477 0-.715-.477-1.189 0-.238.476.236.952.236 1.667.238.953.238 1.905 0 3.096 0 .238-.475.714-.236.952.475.238.475-.238.713-.238.477-.476 1.191-.714 1.43-1.19 0-.238-.477 0-.477-.238-.238-.476.238-.714.477-1.19.477 0 .715-.477 1.191-.477.475.238 0 .477 0 .715s0 .238.238.238c.713-.476 1.189-1.191 1.904-1.667v-.478zm-4.287 1.191c-.238-.238-.238-.953-.238-1.19.238-.238.238-.238.477 0l.953.238v.238c-.239.475-.715.952-1.192.714zM85.423 82.328c1.429.477 2.62.953 4.049 1.429.238 0 .238.238.476.238 0 .477-.238.953-.476 1.191 0 .238-.238.238-.477 0-.238-.238-.238-1.191-.953-.953-.476 0-.714.714-.953 1.19-.238.477-.714 1.191-.714 1.667.238.476.714.714.953 1.19 0 0 0 .238-.238.238-.476 0-.714-.238-.953-.238-.714-.238-1.428-.238-2.143-.714v-.238c.238-.238.715-.238.953-.238.476-.715.714-1.667.953-2.62.238-.238.476-.477.476-.715-.238-.238-.476-.476-.953-.476-.238.238-.476.714-.952.953 0 0-.238 0-.238-.238 0-.714.238-1.19.477-1.667.237-.238.476.001.713.001zM122.812 84.233c.238.714.951 1.19 1.428 1.667.953.715 1.668 1.429 2.857 1.429.238 0 .953 0 .953.238.238.714-.477.714-.715.952l-1.428 1.429c0 .238-.238.238-.238 0-.238-.238-.238-.476-.477-.953-.238-.238-.477-.953-.953-1.19-.715-.477-1.428-1.429-2.381-1.905-.477 0-.715.953-1.191.238 0-.715.715-1.191.953-1.905.238-.238.477-.714.953-.953.478 0 .001.715.239.953zM108.047 85.662c0-.238-.238-.238-.477-.238s-.477.477-.477.715-.475.238-.713.238-.715-.238-.715-.476c0-.714.477-1.667-.238-2.381-.477-1.191-1.906-.953-2.857-.476-.715.476-1.43.476-2.145.952 0 .238.238.238.238.477.238.238.715 0 .953 0 .238.238.477.714.715 1.19.238.477.477 1.191.715 1.905 0 .476-.477.952 0 1.191.236-.239.713-.239 1.189-.477.477-.238-.238-.476 0-.953l.238-.238c.238.238.715.238.953.476 1.191 0 2.381-.238 2.857-1.191.002-.238.002-.714-.236-.714zm-3.572-.239c0 .238-.238.238-.477 0-.238 0-.238-.476-.477-.714 0-.238-.475-.477-.238-.715.715-.238 1.191 0 1.43.477.238.476 0 .715-.238.952zM94.949 84.471c0 .238-.238.238-.238.476-.238 0-.476 0-.476.238-.238 1.19-.238 2.381.238 3.333.238.477.714.477 1.19.477.953-.477.714-1.905.953-2.857 0-.477.238-.953 0-1.191 0-.238-.238-.238-.238-.238 0-.238 0-.238.238-.238.476-.238.952.238 1.667 0l.238.238c.238.238 0 .476-.238.476s-.238.238-.477.238c-.477 1.429-.238 3.096-1.19 4.049-.714.476-1.667.714-2.381.238-1.667-.953-.714-3.096-1.191-4.525 0-.238-.476 0-.476-.476 0 0-.238-.238 0-.477.476-.238 1.19-.238 1.905 0 0 .001.238.001.476.239zM70.42 86.138c0 .953.477 1.429 1.191 1.667.238.238 0 .476-.238.476s-.715 0-1.191.238c-.238.239-.714 0-1.191.239-.238 0-.477 0-.477-.239v-.238c.238-.238.715-.238.715-.714.238-.714-.238-1.191-.715-1.667-.476 0-.714-.238-.952 0-.476.238-.476.715-.238 1.191.238.714.477 1.19.714 1.905 0 .715-.238 1.667-.952 2.144-.477.238-.953.714-1.667.476-.476 0-.952-.476-1.19-.953-.477-.476-.953-1.19-1.19-1.667 0-.477.476-.477.714-.714l1.191-.238c.476.238-.476.476-.476.953s.238.953.714 1.191c.238.238.714 0 .953-.238.238 0 .238-.476.238-.714-.238-1.191-.953-2.143-.714-3.572.238-.238.477-.714.953-.952.953-.477 2.143 0 3.096.714l.712.712zM120.43 94.235c-.238-1.429-.713-2.62-.951-4.048 0-.476-.238-1.191 0-1.667s.477-.714.477-1.19c0-.238-.238-.238-.477-.238-.238.476-.715.714-1.43.952-.238.476-.715.476-.953.953.238.238.477.238.715.238s.238.477.238.477c-.477.714-1.191 1.19-1.904 1.429 0 0-.238 0-.477-.238-.238-.477.238-.714.238-.953 0-.238-.238-.238-.238-.238-.715.476-1.43.714-1.906 1.429-.238.238-.475.238-.475.476s.236.476.236.476c.238.238.477.238.715 0 1.191.238 2.381.715 3.334 1.429.953.238 1.43 1.19 1.906 1.429.477.238.951.238 1.189 0 .239-.24.001-.478-.237-.716zm-1.428-1.667c-.477 0-.477-.238-.953-.477l-.238-.238h.238c.238-.238.715-1.191.953-.476.238.476 0 .714.238.952l-.238.239z" fill="#a5333a"/><path d="M129.004 53.274c-.477-2.381-1.668-4.287-2.383-6.668-.713-.953-.951-1.905-1.666-3.096-.238-.476-.238-1.191-.715-1.905-.238-.477-.715-.953-1.189-1.667-.715-.476-.953-1.429-1.906-1.905-1.189-1.667-2.619-2.858-4.049-4.287-.713-.238-1.428-.953-2.143-1.429-.715-.238-1.43-.953-2.381-1.191-1.191-.714-2.383-1.429-3.572-1.905-.477-.238-.953-.476-1.191-.714-.953-.238-1.904-.953-2.857-1.19-.477 0-.953.238-1.43 0-.238-.714.238-1.429.477-2.143.477-.715 1.43-.238 2.145-.715.238-.238.238-.477.238-.952-.477-.477-.953-.953-1.906-.953-1.191.238-2.143.953-3.096 1.667-.477.477-.953-.238-1.666-.238-.238-.238-.715-.714-.715-1.19s.477-.714.953-.953c.713-.714 1.904-.476 2.619-.238.477 0 .713-.477.713-.714 0-.238 0-.715-.236-.953-.238-.238-.715-.477-1.191-.477-1.191-.238-2.857-.476-4.049.477-.477.238-.953.953-1.429.953-.714-.477-1.667-.715-2.381-1.191l-.953-.477c-1.19-.238-2.143.477-2.858 1.429 0 .476-.476 1.19 0 1.667.238.238.477.238.715.238.477 0 .714-.476.714-.714.238-.238.476 0 .714 0 .476 0 .714.476.953.714.238.477-.238.953-.714 1.429-.238.238-.714.238-1.19 0-1.191-.714-2.62-1.905-4.287-1.19-.714.238-1.667.953-1.667 1.905.238.714.953 0 1.429 0 .714 0 1.429 0 1.905.714.238.476 0 .953-.239 1.191-1.19.476-2.381.476-3.333.714-1.191.238-1.905.714-2.858 1.19-1.667.714-3.572 1.191-5.001 2.381-1.19.715-2.144 1.667-3.096 2.382-.953.952-2.144 1.429-3.096 2.619-.477.715-1.191 1.429-1.905 2.144-.477.714-1.191.952-1.429 1.667-.714.953-1.429 1.667-1.905 2.619-1.667 2.382-3.096 4.763-3.811 7.621-.476 1.429-.952 2.619-.952 4.048-.477.715-.477 1.429-.477 2.144-.238.953-.238 2.144-.238 3.334.238 1.667-.238 3.811.476 5.239.477 3.334 1.429 6.191 2.381 9.049.714 1.19.953 2.62 1.667 3.81 1.905 2.858 3.81 5.954 6.192 8.811.952 1.191 2.381 1.905 3.572 3.096 1.667 1.19 3.334 2.143 5.239 2.857.953.477 2.144.953 3.334 1.191 1.429.714 3.096.714 4.763 1.19.953.238 2.143 0 3.096.238.476.477.952.714 1.429 1.191v1.189c-.477 1.191-.477 2.383-1.429 3.572-.477.477-1.191.715-1.905.953-.953.477-2.144-.477-2.858.477 0 0 0 .238.238.477.714.238 1.905.238 2.858.238.476.238 1.429.238 1.905.238.714-.477 1.428-.477 1.905-.715.714-.238 1.191-.715 1.905-.715l2.143.953c1.43 0 2.857.238 4.287 0 .477 0 .953-.477 1.191-.953.238-.238.238-.477 0-.715s-.477 0-.953 0c-.953-.238-2.143-.477-2.857-1.428-.715-.953-1.43-2.383-.953-3.811.238-.476.953-.476 1.668-.715 2.143-.476 4.523-.714 6.43-1.667 1.666-.477 3.096-1.191 4.762-1.905 1.43-.953 2.619-1.667 4.049-2.62 1.904-1.19 3.334-3.096 5.002-4.763.713-.714 1.189-1.667 1.904-2.381 1.191-1.429 2.143-3.096 2.857-4.525.715-.952 1.191-1.905 1.668-2.857.951-1.667 1.428-3.811 2.143-5.954.238-1.667.477-3.572.953-5.239.238-.953.238-2.144.238-3.096 0-2.377-.239-4.759-.715-6.902zM99.475 25.65h.238c0-.238.238-.476.238-.476.475 0 .713.714 1.189.714s.715-.714 1.191-.952.951-.715 1.666-.953c-.951.715-1.666 1.429-1.666 2.382-.238 1.19 0 2.143.477 3.334.238 0 .475.238.713.238.238-.238.238-.238.477-.238-.238-.477-.238-.953-.477-1.429h.238c.477-.238.715.238 1.191.238v.238c0 .238-.477 0-.477.476 0 .238 0 .477-.238.715s-.238.238-.477.238c-.951 0-1.666-.714-2.143-1.429l-.477-1.667c-.238-.476-.715-.238-1.189-.238-.238-.238-.715-.238-.715-.476-.236-.239-.236-.715.241-.715zm-.954 43.818c.715.714 1.666 1.19 1.666 2.144.238 1.19.477 2.857-.475 3.81-.477 1.191-1.191 2.62-2.621 3.096-.952.714-2.857.476-3.81-.238a2.867 2.867 0 0 1-1.191-1.191c-.952-1.429-1.429-3.81-.476-5.477.476-1.191 1.667-2.62 3.096-2.858 1.191 0 2.381.238 3.334.477l.238-.238c0-.714-.715-.952-1.191-1.19-.714-.238-1.667 0-2.619 0-1.191.238-2.382.714-3.334 1.429-1.905 1.429-2.62 3.572-2.858 5.715 0 1.191.477 2.143.953 3.096.714 1.19 1.905 1.429 3.096 2.143.714 0 1.667.476 2.381.714.238 0 .238.238.238.476-.238.714-1.191.238-1.667.238-1.191-.238-2.143-.238-3.096-.714-.952-.238-1.667-.476-2.381-1.191-.238 0-.238-.238-.238-.238.238-.715.476-1.429.952-1.905v-.714c-.238 0-.476-.238-.714-.238-.715.714-.715 1.667-1.429 2.381-.953.238-1.667-.476-2.381-.952-.477-.477-.477-1.191-.238-1.905.715-1.429 1.667-2.381 2.144-3.811.714-.952.953-2.381 1.905-3.334.476-.952.714-1.905 1.667-2.381.952-.476 2.143-.238 2.857.714.238 0 .476-.238.714-.238a1.52 1.52 0 0 1 1.429 0c.238.238.476.476.714.238.715 0 .953-.238 1.667-.476.714-.238 1.667-.238 2.382.238.477.238.477.953.477 1.429.238.238.238.476 0 .476-.477.238-.953-.238-1.191.238v.237zm13.813 1.906c.238.714 1.189 1.19.477 2.143-.477 1.191-1.906 2.143-2.859 3.096-.236.238-.475.238-.713.238-.953-1.429-1.43-3.096-2.383-4.525-.236-.714-.475-1.429-.951-2.143-.238-.714-1.191-1.429-1.191-2.381 0-.238.238-.477.477-.714.953 0 1.666 0 2.619.238l.477.238c1.428 1.189 2.617 2.619 4.047 3.81zm-2.383-4.525h.238c1.668-.238 3.334-.714 5.002-.238l.477.238.238.238c.238 1.667-.715 2.857-1.668 4.287-.715 0-.951-.477-1.428-.953-.715-.952-1.43-1.905-2.383-2.619-.238-.239-.476-.477-.476-.953zm-3.57 7.144c.713 1.191 1.189 2.382 1.904 3.334.238.238.238.477 0 .477-.715.714-1.666 1.19-2.619 1.667-.953.238-1.668.477-2.383.477-.236 0-.475-.239-.475-.477-.477-2.62-.715-5.478-1.191-8.097 0-.953 0-2.144-.238-2.858v-1.429c.477-.238 1.191-.238 1.668.238.713.953.951 2.144 1.666 3.334.715.953.953 2.381 1.668 3.334zm-5.002 2.858c.238 1.191.238 2.381.477 3.572 0 .238-.238.476-.477.476-.715.476-1.428.476-2.143.714-.953 0-1.668.238-2.382 0-.238-.476-.238-.714 0-1.19.714-.715 1.906-.715 2.621-1.429.713-.714.951-1.429 1.666-2.143 0-.476.238-.239.238 0zm-14.765-8.335c-.714 1.429-1.191 2.858-2.143 4.287-.477.714-.477 1.429-.953 2.143-.476.476-.476 1.191-1.428 1.429-1.191-.477-2.144-1.429-2.858-2.382-.238-1.19.476-1.905.953-2.857.953-1.191 1.905-2.62 2.857-3.572 1.191-1.19 2.62-1.429 4.048-.953.238.238.238.477.238.477-.238.475-.714.952-.714 1.428zm-5.715-.239c-.714.714-1.191 1.429-1.905 2.143-.476.238-.952.953-1.429.715-.953-.953-1.19-2.144-1.19-3.572 0-.238 0-.714.476-.953.953-.238 1.905.238 2.857 0h.953c.238.238.714.238.953.477-.001.476-.477.714-.715 1.19zm-2.144 8.098c.953.952 1.905 1.667 2.62 2.381 2.62 2.144 5.715 3.096 8.811 4.049 1.667.476 3.334.714 5.239.952 1.667 0 3.096-.238 4.762-.476.477 0 .953-.476 1.668-.476 1.191-.238 2.143-.953 3.334-1.429 1.43-.476 2.619-1.428 4.049-1.905 1.666-1.19 2.857-3.096 4.285-4.287.477-1.191 1.668-2.381 2.145-3.572.477-1.191 1.428-2.144 1.666-3.334.477-.714.477-1.429 1.191-2.143.953-.477 2.143-.238 3.334-.477h1.904c.238.238 0 .715 0 1.191-.238.953-.477 1.905-.713 2.858-.477.952-.715 2.143-1.191 3.096s-.715 2.143-1.43 3.096c-.951 1.19-1.666 2.62-2.619 3.572l-1.428 1.429c-1.191.953-2.145 2.144-3.334 3.096-.715.477-1.191 1.191-2.145 1.429-1.428.953-3.096 2.144-5 2.858l-2.621.953-.713.238-6.43.714c-.953 0-1.667-.238-2.62-.238-.953-.238-2.143-.238-3.334-.476-4.286-.477-8.335-1.429-11.668-4.049a21.645 21.645 0 0 1-5.001-4.286l-2.858-3.572c-.952-.953-1.19-2.144-1.667-3.096-.714-1.905-1.19-3.572-1.429-5.478-.238-.714-.476-1.667-.476-2.381.238-.714.952-.476 1.428-.476.715 0 .953-.238 1.429-.238.953.238 2.381-.238 2.62.714.476 1.905 1.905 3.572 2.619 5.478.954 1.665 2.383 2.855 3.573 4.285zm43.819-12.146c-1.906 0-3.572.238-5.24.238h-2.619c-.715.238-1.666.238-2.619.238-.715 0-1.43.238-2.381 0H99.474c-1.191-.238-2.383 0-3.811 0-1.905 0-3.81.238-5.715 0h-9.526c-1.429 0-2.619-.477-4.048-.238-2.144-.238-4.287 0-6.43-.715-.714.238-1.667 0-2.381.238l-.476-.476c-.238-1.667-1.191-3.096-.477-4.525 0-.238.238-.714.477-.714h6.667c.477-.238.953 0 1.429 0 1.429-.238 3.096 0 4.763 0 1.429-.238 2.62.476 4.287.238 1.19-.238 2.857 0 4.286 0 .715 0 1.667-.238 2.382 0 .714 0 1.667 0 2.381-.238h5.001c.238-.238.715 0 1.191 0 1.189-.238 2.381 0 3.572-.238 2.143 0 4.285 0 6.43.238.475-.238 1.189 0 1.904 0 2.857-.238 6.191-.238 9.049-.238.953-.238 2.145-.238 3.096-.238.238 0 .477 0 .715.238.238.714.238 1.429.238 2.381 0 1.19.477 2.143.238 3.333 0 .238-.238.477-.477.477-.714.239-1.188.001-1.665.001zM83.756 49.703c-.476-.715-1.429-.477-1.905-.238a139.31 139.31 0 0 0-4.048.714c-.477-.238-.715 0-.953-.238.238-.477.714-.953.953-1.191.476-.476 1.429 0 1.429-.714.238-.477-.714-.714 0-.953.953-.238 1.905-.238 2.858-.238l4.286.238c.714.238 1.667.238 2.382 0 .238 0 .476-.238.238-.477-.477-.476-.953-.238-1.667-.714h-3.572c-.952.238-1.905 0-2.857-.238-.238 0-.477 0-.238-.238.714-.476 1.429-.714 2.144-.714h.238c0-.477 0-.715-.238-.953 1.667-.953 3.572.238 5.001.714l.714.238c.477.476 1.191.476 1.667.714.238.714-.714 1.19-.476 2.143 0 1.429 0 3.096 1.429 4.287.952.476 1.905.953 2.857 1.191.477-.238.953 0 1.429-.238.238.238.715 0 .953.238 0 .714.238.952.476 1.429-.238.952.238 1.667.238 2.381 0 .238-.238.238-.476.238-.476 0-.476-.238-.714-.476-.238-.953.238-1.667.238-2.382 0-.238-.238-.476-.477-.714-.238 0-.477.238-.477.238-.238.476-.238 1.19 0 1.429 0 .476 0 .714-.238.953.238.477.238.953-.238 1.19-.238 0-.476.238-.714-.238-.238-.238 0-.714 0-1.191.477-.477.238-1.19.477-1.905 0-.238 0-.238-.238-.476-.238 0-.714 0-.714.476-.238.238 0 .953-.238 1.429-.238.715 0 1.667-.953 1.905h-1.19c-.238-.238-.238-.238 0-.476.476-.953 1.429-1.667 1.905-2.858 0-.238-.238-.476-.476-.952h-.241c-.476.476-.476.952-.952 1.429-.238.714-.953 1.667-1.429 2.381-.476.476-1.19.238-1.667.238v-.238c.238-.714.953-1.191 1.429-1.905.476-.476.953-.714 1.429-1.429 0 0 .238-.238.238-.714 0 0-.238-.238-.238-.477-.238 0-.715 0-.715.238-.476.238-.714.953-.952 1.429-.714.953-1.905 1.905-2.62 3.096-.953.238-1.905.238-2.858.238 0-.238-.238-.476 0-.476 1.667-1.191 3.096-2.62 4.763-3.81.476-.715 1.428-.953 1.19-1.905-.476-.477-1.19-.477-1.905-.477-1.429.715-2.857 1.667-4.525 2.144-1.428.714-2.857 1.19-4.048 1.905-1.191.476-2.144 1.19-3.334.952-.238 0-.477-.238-.238-.238 1.19-.952 2.62-1.19 3.81-1.905 1.191-.476 2.143-.953 3.096-1.429.238 0 .476-.238.714-.476 0-.238-.476-.238-.952-.238-.953.238-1.905.714-2.858.952-1.19.238-2.143.953-3.572.953 0 0-.238 0-.477-.238 0-.477.238-.715.477-.953l1.429-.714c1.905 0 3.572-.477 5.239-.953.238-.237 1.191-.237.952-.713zm6.192-6.907c-.476 0-.714-.238-.953-.238-.477-.476-.953-.714-1.429-.952-.238-.238-.238-.477 0-.477 0-.238.238-.476.714-.476.714-.238.953.714 1.429.953.953.476 1.191 1.429 1.905 1.905v.238c-.476.238-.714 1.191-1.429.953-.714-.477-1.428-.953-2.143-.953-.714-.714-1.667-.953-2.62-1.191-.238 0-.238-.238-.238-.238.238-.476.714 0 .952-.238.477.476.953.476 1.667.476.476.477 1.429.715 2.143.953 0 0 .238 0 .238-.238.002-.238-.236-.238-.236-.477zm2.382-1.667c0-.476-.238-.953 0-1.191l.238-.238c.238 0 .476 0 .476.238-.238.715 0 1.667.238 2.381-.238.238-.477.477-.714.477-.477.238-.714-.477-1.19-.714-.477-.476-.715-1.191-1.429-1.429v-.477c.238-.238.476-.238.714-.238l.238.238c.477.477.714 1.429 1.429 1.667.238.238.476 0 .476 0 0-.475-.238-.475-.476-.714zm2.857.239c.238 0 .477-.238.477-.477v-.953l.477-.714c.238 0 .476 0 .476.238 0 .714 0 1.429-.238 1.905-.238.238 0 .952-.476.952-.477.238-.953.238-1.667.238v-.237c-.238-.952-.238-1.667-.238-2.381v-.476c0-.238.238 0 .477 0 .238 0 .476.238.476.476-.002.476-.24 1.19.236 1.429zm1.667 2.619c.238 0 .714.238.953.477.477.238.953.714 1.191.953.238.238.238.476.238.476-.238.238-.953.477-.953.953.238.238.238.714.477 1.191.238 0 .477 0 .477.238 0 1.19-.238 2.143-1.191 3.096-.477.476-1.191.238-1.905.476-1.429.476-2.858 0-4.049-.953-.952-.476-1.19-1.429-1.429-2.381 0-.953.238-1.667.715-2.62a7.236 7.236 0 0 1 1.905-1.905c.952-.477 2.381-.477 3.571-.001zm.714-4.286c.238 0 .238-.238.477-.238 0 0 .238 0 .238.238 0 .953-.477 1.667-.715 2.381 0 0 0 .238-.238.238-.238-.952.477-1.667.238-2.619zm2.145 2.381h.238c.713-.714 1.189-2.144 2.143-1.667.238 0 .477 0 .477.238 0 .476-.238.238-.477.476-.715.953-1.906 1.429-2.619 2.381-.238 0-.477 0-.715-.238-.477-.715 0-1.667.238-2.62.238-.238.477-.953.953-.953.475 0 .475 0 .713.238v.238c-.477.477-.713.953-.951 1.429-.238.002 0 .24 0 .478zm1.428 2.381h.715c.953-.477 2.381-.953 3.572-1.667 1.191-.238 2.619 0 3.572.953 0 0 .238 0 0 .238-.715 0-1.43.238-2.381.477-.238 0-.477.238-.477.477 0 .238 0 .238.238.238.713 0 1.428-.238 2.143-.476.477 0 1.191-.238 1.904.238.238.238.953.476.715.952-.477.477-1.191.477-1.666.477-2.621-.238-5.002 0-7.621.238h-1.191s-.238-.238 0-.476c.477 0 .715-.238 1.191-.477h1.191l1.904-.238.477-.476s-.238-.238-.477-.238c-.715-.238-1.191 0-1.904 0-.953.238-1.668.476-2.383.714-.477 0-.238-.714-.477-.953-.236-.477 0-.714.238-.714 1.191-1.429 2.857-2.858 4.764-1.905l.238.238c0 .476-.715.238-.953.476-1.191.477-2.143.953-3.334 1.429.002.237.002.237.002.475zm3.81 4.049c1.191.238 2.143.238 3.334.238h1.904c1.43 0 3.098-.476 4.049.715.238.714.477 1.19.477 1.667 0 .238 0 .238-.238.238-.715 0-1.428-.477-2.143-.477-.953-.238-1.906-.714-3.096-.714-.953 0-1.668-.714-2.619-.714-.953-.238-1.668-.238-2.383-.477-1.189-.238-2.619-.238-3.334-1.19-.238-.238 0-.476.238-.476 2.381-.238 4.525-.238 6.906-.238h1.191c1.189 0 2.381 0 3.334.238 0 0 .477.238.238.476a10.26 10.26 0 0 1-3.811 0h-2.381c-.715.238-1.43-.238-1.906.238.002.238.002.476.24.476zm-1.904 2.381c.713.477 1.428.238 2.143.715.953.238 1.904.476 2.857.952h.477c.477.477.953.238 1.428.477.715.238 1.668.476 2.383.952l2.857.715c.715.476 1.191.952 1.666 1.429.238 0 .238.477.238.714-.238.238-.713.238-1.189.238-.238 0-.477-.238-.715-.238h-.953c-.715-.238-.951-.953-1.428-1.191-.238 0-.715-.238-.953-.476-.715-.238-1.191-.714-1.668-.953-.713-.238-1.428-.476-1.904-.714-.477-.714-1.191-.714-1.904-1.191-.715-.238-1.668-.476-2.383-.714-.477-.238-1.189-.477-1.666-.715-.238 0-.477 0-.477.238 0 .714.715.714 1.191.953.475 0 .951.476 1.428.476.953.238 1.668.477 2.381.953.477.238.953.714 1.43.953.953.714 2.381.476 3.096 1.429.477.477 1.191.715 1.668 1.191 0 .238-.238.238-.238.238-.953-.238-1.668-.238-2.383-.238-.477 0-.951-.238-1.428-.238-1.191-.714-2.381-1.667-3.572-2.62-1.191-.238-1.906-.953-2.857-1.667-.715-.476-1.43-1.19-2.383-1.429 0-.238-.236-.238-.236-.477.236-.476.713-.952.713-1.429.238-.477.477 0 .715 0 1.191.238 2.381.477 3.334.715 1.43.476 3.096.476 4.525.952 1.189.238 2.143.715 3.096.953.953.238 1.904.238 2.619.476.477.238.715.953.715 1.429 0 0-.238.238-.477.238-1.668-.238-2.857-1.19-4.525-1.667-1.189-.238-2.381-.714-3.572-1.19-.951-.238-2.143-.238-3.096-.714-.238-.238-.477 0-.715 0-.238-.001-.238.237-.238.475zm-4.764 1.667l.238-.238c.477 0 .477.477.715.477.715.714 1.428 1.19 1.904 1.905.715.476.953 1.19 1.43 1.667 0 .238.238.238 0 .476-.238 0-.477.238-.715.238s-.715 0-.715-.238c-1.189-1.43-1.904-2.858-2.857-4.287zm1.192 4.049c0 .238-.238.476-.477.476-.238-.238-.715-.238-.953-.476-.238-.953-.477-1.905-.477-2.858-.238-.238-.238-.477-.238-.953.238-.238.477.238.477.238.476 1.191 1.668 2.144 1.668 3.573zm.238-4.287s-.238-.238-.238-.476.238-.238.238-.238c.475 0 .713.476.951.714 1.191.238 1.906 1.429 3.096 1.905.953.714 1.906.953 2.859 1.905.475.238.951.714 1.428.953h-.477c-.477 0-1.189 0-1.904-.238-.953-.238-1.668-.714-2.383-1.429-1.189-.953-2.142-2.144-3.57-3.096zM82.09 56.371c-.953.476-2.382.714-3.572.238-.238 0 0-.238 0-.477 1.429-.953 3.096-1.429 4.763-2.144.953-.238 1.667-.952 2.62-1.19s1.667-.953 2.619-1.19c.239-.238.477-.477.715-.238-.238.714-.953 1.19-1.667 1.667-1.668 1.428-3.812 2.143-5.478 3.334zm40.722.476h-2.145c-.951 0-1.666.238-2.381 0h-.238c0-1.191 0-2.143-.715-3.096-.238-.953-.477-1.905-1.189-2.62-.238-.953-.953-1.905-1.43-2.62l-2.143-2.858c-.953-.714-1.43-1.667-2.621-2.381-.951-.715-1.904-1.191-2.857-1.905-.951-.477-2.143-.714-3.096-1.191-.715-.476-1.666-.476-2.619-.953a135.518 135.518 0 0 0-4.049-.714h-4.048c-1.191 0-2.62.476-3.81.714l-1.667.238c-1.905.476-3.572 1.667-5.239 2.62-.953.714-1.905 1.667-2.858 2.381-1.19.953-2.381 2.143-3.096 3.334-.476.477-.953.952-1.191 1.429-.714.715-.952 1.667-1.429 2.382-.714 1.429-.953 3.333-1.667 5.001-.238.238-.476 0-.714 0-.953.238-1.667.238-2.62 0-.714 0-1.429 0-2.143-.238-.238-.238-.477-.477-.238-.953-.238-2.143.714-3.81 1.191-5.715.238-.953.714-1.905 1.19-2.858.715-1.667 1.667-3.334 3.096-4.525.715-.952 1.191-1.905 1.905-2.381 1.19-.953 2.62-2.143 4.049-2.62l2.143-1.429c1.429-.714 2.857-1.429 4.287-1.905.714-.477 1.429-.714 2.143-1.191 2.381-.952 5.477-1.19 8.097-1.667.714.238 1.191-.238 1.905 0 2.144-.238 4.048.238 6.192.715l2.143.714c1.191.715 2.381 1.191 3.334 1.667.953.477 1.666.953 2.619 1.429 1.668.715 2.857 2.62 4.287 3.572 1.666 1.191 2.619 2.858 4.049 4.287v.238l.951 1.429c.477.714.953 1.667 1.191 2.62.953 1.667 1.191 3.572 2.143 5.239 0 .952.715 1.905.715 2.857.001.716-.952.478-1.427.954zM93.521 28.27c.953-.953 1.429-2.382 1.429-4.049.238-1.19-.238-2.143-.714-3.096v-.238l.238.238c.714.477 1.429.953 1.905 1.667.238.238.476.238.476 0 .714-.714 1.191-1.905 2.382-2.143 0 0 .238-.238.238 0s-.238.238-.477.238c-.953.952-1.668 2.143-1.906 3.333 0 1.429.477 2.858.953 4.049h-.238c-.238-.238-.477-.715-.953-1.191-.238-.238-.476-.714-.476-1.191 0 0-.238-.238-.238 0-.715 1.191-1.191 2.858-2.858 3.334h-.477c.001-.475.477-.475.716-.951zm-1.667-2.858c.238-.238.714-.714 1.19-.476h.238c0 .476-.238.714-.477.952-.238.238-.476.238-.952.238l.001-.714zm-5.716 3.334c.238-.714.715-.714 1.191-.953.238 0 .477 0 .714.238 0 .714-1.429.714-.714 1.429.714 0 1.429-.477 1.667-.953.714-.953 1.667-1.905 1.19-3.096.238 0 .715-.238.953 0 0 .476-.238 1.191.238 1.429.476 0 .714-.476.714 0 .238.238-.238.477-.238.477-.714.238-1.429-.477-1.667.238-.238.953-.714 2.144-1.667 2.62-.714 0-1.429.238-1.905 0-.476-.476-.476-.953-.476-1.429zm-24.29 29.53c0-1.667.476-3.334.714-5.001.238-.714.477-1.667.477-2.62l.952-2.381c.953-1.429 1.429-3.334 2.858-4.763.714-1.191 1.667-2.381 2.62-3.572.952-1.429 2.619-2.381 3.572-3.81.477-.238 1.191-.953 1.667-1.19l2.858-2.382c1.19-.714 2.143-1.19 3.334-1.905.714-.476 1.667-.714 2.619-.952.238-.238.715-.238.953 0 .714.952 1.667 1.905 3.096 1.667.714-.238 1.429-.477 2.143-1.191.238 0 .238-.238.714-.476.238 0 .477.476.715.476 1.19 0 2.143 0 3.096-.476.714-.238 1.19-.715 1.667-1.191.238 0 .476.476.714.714.714.477 1.667.477 2.62.715-.238.238-.477 0-.715 0-2.381-.238-5.001.238-7.144.714-2.144.477-4.287.715-6.192 1.667-1.429.476-2.858 1.19-4.287 1.905-1.905.715-3.811 2.144-5.716 2.858-2.857 2.143-4.763 5.001-6.668 7.859-1.428 1.667-1.667 3.81-2.381 5.715-.238 1.429-.715 2.858-.953 4.525l-.714 3.572c-.238.238-.477 0-.715-.238s-.476-.476-.952-.238c-.238 0-.477 0-.715.238-.237-.001-.237-.001-.237-.239zm2.619 2.381c0 .238 0 .477-.238.477h-.714c-.238.238-.476.476-.953.476-.238 0-.238-.238-.477-.476v-.477l.477-.476c.238 0 .477.238.714.476.476 0 .953-.238 1.191 0zm25.719 30.482c-.476 0-1.19-.238-1.428.238-.239.476-.239.714-.239 1.19.239 0 .239.238.477 0s.714 0 .953 0v.476c-.953.477-1.905 0-2.858 0-1.19-.476-2.381-.476-3.572-.953-.714-.238-1.428-.714-2.143-.952-1.667-.715-3.333-1.429-5-2.62-2.144-1.428-4.525-3.333-5.954-5.477-1.905-2.62-3.572-5.001-4.763-7.859-.238-.953-.952-1.667-1.19-2.62-1.191-2.62-1.667-5.477-2.382-8.097 0-.238-.238-.715 0-.953.477-.238.715.476 1.191 0s.953-.714 1.429-.238c.476.714-.477 1.667.476 2.143.238.476.476.714.476 1.19-.238.477 0 .953.238 1.667l.714 2.858c.477 1.429 1.191 2.62 1.429 4.048.714 1.905 2.381 3.81 3.572 5.477s2.62 2.858 4.048 4.287c1.905 1.429 4.048 3.096 6.43 3.811 1.905.714 3.572.953 5.477 1.429 2.381.714 5.001.714 7.382.953h.238c-.952.238-.952 1.667-1.905 1.19-1.191-.236-2.143-.95-3.096-1.188zm8.097 1.905c-1.191.714-1.905 1.905-1.905 3.097.238 1.666.952 3.334 1.905 4.762 0 .238.238.238.238.477-.477.238-.715-.238-.953-.477-.952-.713-1.667-2.619-3.095-1.904l-.715.715c-.238.238-.476.477-.714.238.238-.953.714-1.668.714-2.621.238-.477.238-1.428 0-1.904-.714-.477-1.19-.715-1.905-1.429l.476-.476c.714 0 1.905.476 2.381-.238.238-.239.476-.477.714-.477.477.714 1.429.477 1.905.238.477 0 .477 0 .953-.238l.001.237zm29.768-27.862c-.238 1.905-.953 3.572-1.43 5.239-.951 2.144-1.666 4.287-2.857 6.192-1.189 2.143-2.619 4.048-3.809 5.954-.953 1.19-2.145 2.144-3.336 3.096-1.189 1.667-3.096 2.62-4.762 3.572-2.143 1.429-4.287 2.381-6.668 3.334-1.191.715-2.857.715-4.287 1.19-.238.238-.715.238-.951-.238v-.477c.475-.238 1.189-.238 1.428-.953 0-.476-.238-.714-.715-.952-.713-.238-1.189.238-1.904.238-.715.238-1.43.714-2.144.476-.238-.238-.714-.238-.714-.476v-.238c.476.238 1.19 0 1.905 0 1.191 0 2.381-.477 3.572-.477 2.143 0 3.811-.476 5.477-1.429 1.906-.953 3.572-1.667 5.002-2.858l2.857-2.143c1.668-2.144 4.287-3.81 5.715-6.191 1.668-2.144 2.621-4.287 3.572-6.668.715-1.667.953-3.334 1.668-5.239l.715-.714c0-.476 0-.953-.238-1.191 0-.238 0-.477.238-.714.475-.238.951.476 1.428.714.238.238.238.715.238.953zm0-2.858c-.238.238-.477.476-.953.238-.238 0-.477-.238-.713-.714v-.476c.475-.477 1.189-.477 1.666-.238l.238.238c.238.237 0 .713-.238.952zm-.239-2.858c-.238.238-.715 0-.953.238 0-.715-.238-1.667-.475-2.382-.238-.476 0-1.19-.477-1.667-.477-2.143-.953-4.286-1.906-6.191-.238-.953-.715-1.667-1.189-2.381-.477-1.429-.953-2.381-1.668-3.572-.477-.476-.715-1.191-1.189-1.667-.715-.714-1.191-1.667-2.145-2.62-.715-.238-1.191-1.19-1.904-1.667-1.43-.714-2.619-2.143-4.049-2.857a44.442 44.442 0 0 1-4.764-2.381c-.951-.476-1.904-.714-2.857-1.191 0 0-.238 0 0-.238s.715-.238 1.191-.476c.238-.476.715-.714 1.191-1.191a28.612 28.612 0 0 1 3.809 1.905c1.668.715 3.334 1.429 4.764 2.62 1.666.953 2.619 2.381 4.049 3.572 1.666 1.191 2.857 3.096 4.047 5.001l1.43 2.858c.715 1.429 1.191 2.858 1.904 4.287a25.134 25.134 0 0 1 1.43 5.715c.238 1.429.477 2.858.477 4.287-.239-.002-.477-.24-.716-.002z" fill="#a5333a"/><path d="M110.666 93.044c0 .239-.477.714-.238.953.238.714.238 1.429.715 1.905.238.714.477 1.428.953 1.905s.953.238 1.428.477c.238 0 .238.238.238.477-.238.477-.713.477-1.189.477-.953.477-2.145.953-3.096 1.428-.238.238-.238.715-.715.477-.477-.477-.477-1.189-.953-1.666 0-.238 0-.477.238-.477s.238.238.477.238c.477 0 .715.238.953.238.238-.238.475-.477.951-.715l-.238-1.191c-.238 0-.475-.238-.713 0s0 .715-.477.715c0 .238-.238 0-.238-.238-.238-.477-.477-.953-.477-1.667.238-.476.715.238 1.191 0v-.476c-.477-.476-.477-1.667-1.43-1.191-.477.238-.953.238-1.191.715 0 .238 0 .715-.475.952 0 0-.238 0-.238-.237-.238-.239 0-.477 0-.954 0-.238-.238-.714.238-.714.951-.477 2.143-.715 3.096-1.19.475-.241.713-.479 1.19-.241zM84.947 95.426c.714 1.428 0 3.096-.476 4.764 0 .236 0 .951.476 1.189 0 .238-.238.477-.238.477-.477 0-.953-.238-1.429-.477-.238-.238-.953 0-1.19-.238 0-.477.476-.477.714-.715l.238-.236c.476-1.191.953-2.383.953-3.573 0-.476-.238-.953-.714-1.19-.476 0-1.19 0-1.667.715-.476.713-1.191 1.666-1.191 2.619 0 .715.238.953.477 1.43 0 0 0 .236-.238.236-.476 0-1.19-.475-1.667-.951-.476 0-.952.238-1.19-.477l.238-.238c.714-.238.476-1.191.952-1.668.477-1.19 1.429-2.381 2.62-2.857 1.189-.239 2.618-.239 3.332 1.19zM76.851 91.615c-.714-.476-1.667-1.191-2.381-1.429-.953-.238-1.905 0-2.62.714-.476.714-.238 1.667 0 2.382.238.476-.476.476-.714.714-.477.714-.238 1.667 0 2.381.238.476.952.476 1.429.952.714.477 1.429.715 2.143 1.191.238 0 .476 0 .476-.238s-.476-.715-.714-.953c-.238-.714.476-.952.714-1.667.477-.714 1.191-1.905 2.144-2.381.238-.239.953.238 1.191-.239-.477-.712-1.192-.951-1.668-1.427zm-3.573 4.763c-.476.238-.714-.476-.953-.476v-.715c.238-.238.477-.238.714-.238l.714.714c.001.239-.236.478-.475.715zm1.429-3.095c-.238.238-.238.476-.476.476s-.714-.238-.714-.714v-1.19c.476-.238 1.19-.238 1.667.238.237.475-.477.713-.477 1.19z" fill="#a5333a"/><path d="M96.616 127.812c.476.238.952.238 1.19.477v3.573c-.715-.477-.477-1.191-.953-1.43-.952-1.189-2.381-1.666-4.048-1.428-.476.477-1.19.477-1.428 1.189-.715.953-.477 2.383 0 3.334 1.19 1.191 2.619 1.43 4.048 2.145 1.429.477 2.858 1.189 3.811 2.381.715.953.715 1.904.715 3.096s-.477 2.619-1.43 3.572c-.715.715-1.667 1.43-2.858 1.668-1.905.713-4.286.236-6.191.236-.238-.236-.714.238-.953-.236.239-1.191.239-2.621.239-3.811 0 0 0-.238.238-.238 0 .238 0 .477.238.715a5.575 5.575 0 0 0 1.667 1.666c1.429.715 3.096.715 4.524.238 1.191-.238 2.143-1.191 2.381-2.143.477-1.191.238-2.383-.477-3.096-1.428-1.668-3.572-2.383-5.477-3.098-1.191-.475-2.144-1.189-2.62-2.381-.476-.951-.715-1.904-.476-2.857.238-1.191.714-2.143 1.667-2.857 1.668-.953 4.05-.953 6.193-.715zM124.479 128.051h.238c.953 0 1.668.238 2.619 0 .238 0 0 .238 0 .477-.238.238-.951.238-1.189.715-.238 1.189 0 2.381-.238 3.572v6.906c.238 1.666-.477 3.809 1.189 5 .715.477 1.668.238 2.383.238 1.904.238 4.047.238 4.762-1.668.238 0 .238-.236.477-.236.477.236 0 .713 0 .951 0 .715-.238 1.43-.238 2.145 0 .238-.238.238-.477.238-1.666 0-3.334.236-5.238.236h-6.43v-.236c-.238-.238 0-.477.238-.477.477 0 .713-.477.951-.715.238-.477.238-.953.238-1.43v-8.811c0-1.904.238-3.572 0-5.477-.238-.715-.713-.715-1.189-.953 0-.238-.238-.238 0-.477.712.002 1.427.24 1.904.002zM41.129 128.051c-.238.477-.714.477-.953.715s-.476.477-.476.953v11.668c0 1.43.714 2.857 2.143 3.334 1.905.715 4.287.477 6.192-.238 1.429-.477 1.905-1.904 2.143-3.096l.238-1.666v-9.289c0-.477-.238-1.189-.952-1.666-.238 0-.477-.238-.715-.477-.238 0 0-.238 0-.238h4.763l.239.238c-.239.238-.715.238-.953.477-.714.477-.477 1.428-.477 2.381l-.238 9.525c0 1.191-.476 2.383-.953 3.334-.715 1.43-2.144 1.906-3.572 2.383-1.667.475-3.334.475-5.001.236-.238 0-.714 0-.953-.236-1.667-.238-3.096-1.191-3.81-2.859-.477-1.189-.714-2.381-.714-3.572l.238-2.381-.238-7.621c0-.475 0-.951-.238-1.189-.238-.238-.714-.238-.953-.477 0-.238.238-.238.238-.238h5.002v-.001zM83.756 129.004c-1.19-1.43-3.334-.953-5.239-1.191-1.429.238-2.858.238-4.287.238-.477 0-1.191-.238-1.429.238v.238c.714 0 1.19.238 1.429.953.238 1.189 0 2.619.238 4.047v9.051l-.238 1.666c0 .715 0 1.43-.714 1.668-.238.238-.477.238-.477.238 0 .238-.238.475 0 .475 1.429-.236 3.096 0 4.525 0h.715v-.236l-.238-.238c-.238-.238-.715-.238-.953-.715s-.238-.953-.238-1.43v-6.429c2.62.238 4.763 0 6.667-1.189.238-.477.715-.715.715-1.191.954-1.906.954-4.289-.476-6.193zm-.952 3.572c0 .951 0 1.904-.714 2.619-1.191 1.428-3.096 1.191-5.001 1.191-.238-.238-.238-.477-.238-.953v-5.479c0-.236-.238-.713.238-.713.715-.238 1.429-.238 2.144-.238 1.19.238 2.858.238 3.096 1.666.237.716.475 1.192.475 1.907zM68.515 129.719c-.476-.953-1.428-1.43-2.381-1.668-2.858-.238-5.954 0-8.812 0-.238 0-.476 0-.476.238s.476.238.714.238c1.667.953.715 3.334.953 4.764v9.764c-.238 1.189.238 2.619-1.191 3.096 0 0-.238 0-.238.238-.238 0-.238.236 0 .236 1.667 0 3.334-.236 5.239 0v-.236c-.238-.238-.476-.238-.714-.238-.714-.715-.714-1.43-.714-2.383v-5.715c0-.238.238-.238.238-.238H62.8c.952 0 1.667-.238 2.619-.238.715-.238 1.429-.477 2.144-.953.238-.236.714-.713.952-.951.238-.477.477-.715.477-1.191.476-1.668.238-3.574-.477-4.763zm-2.143 5.476c-.476.477-.953.953-1.667 1.191h-3.334c-.477-.238-.477-.953-.477-1.191v-5.715c.238-.238.477 0 .714-.238h3.572c.476.238 1.19.477 1.429.951.477.715.477 1.668.477 2.621.001.713-.237 1.666-.714 2.381zM155.199 145.912c-.477 0-1.191-.238-1.43-.715-1.189-2.143-1.904-4.287-2.857-6.43-1.428-3.811-3.334-7.859-5-11.67-.238 0-.238.238-.477.238-.477 1.906-1.668 3.811-2.383 5.479-.475 1.189-1.189 2.143-1.666 3.334-1.191 2.857-2.619 5.715-3.811 8.572-.238.477-.477.953-.953.953-.238.238-.475.238-.713.238v.477h2.857c.477 0 1.428.236 1.666-.238 0-.238-.238-.477-.713-.477 0-.477-.238-.715 0-1.191.475-1.428 1.189-2.857 1.904-4.287 0-.475.238-.713.715-.713h6.191l.715.713 1.189 3.572c.238.477.477.953.477 1.668-.238.477-.715.477-.953.953h5.478c.003-.238.003-.238-.236-.476zm-7.144-8.098l-.238.238c-1.428 0-2.857-.238-4.287 0-.238-.238-.713 0-.713-.238v-.714c.951-1.904 1.904-3.809 2.619-5.953h.238c.477 1.191.951 2.381 1.189 3.572.477.715.715 1.904 1.191 2.619.001.238.239.476.001.476zM120.191 146.15c-.713-.238-.951-.715-1.428-1.191-1.191-2.619-2.381-5.238-3.334-7.859l-2.381-5.477c-.477-1.43-1.191-2.857-1.668-4.287 0-.477-.238 0-.477 0-1.904 4.287-3.811 8.336-5.715 12.385-.477 1.428-1.191 2.857-1.906 4.285a7.206 7.206 0 0 1-1.904 1.906c-.238.238-.477.238-.477.477l.238.236c1.43-.236 2.857-.475 4.287 0 .238-.236.238-.236.238-.475s-.477-.238-.477-.477c-.477-.238-.477-.715-.477-.953.715-1.666 1.43-3.334 2.143-4.764 0-.236.238-.475.477-.475h6.43l.238.238 1.43 3.809c.238.715.715 1.43.477 2.145-.238.477-.953.238-.953.951h.238a17.744 17.744 0 0 1 5 0l.238-.236c.002.001.002-.238-.237-.238zm-8.334-8.097h-4.049v-.238c.953-2.143 1.906-4.049 2.857-6.191 0 0 0-.238.238 0 .715 1.904 1.43 4.049 2.383 6.191-.237.476-.952-.001-1.429.238zM38.272 168.535h.238c.953.953 1.905 2.143 3.096 3.096 1.191 1.191 2.381 2.619 3.811 3.811V164.01c0-.477 0-.477-.238-.953 0-.713-.477-1.189-1.191-1.428 0-.238 0-.238.238-.477a10.26 10.26 0 0 0 3.811 0l.238.238c0 .238-.476.477-.714.477-.238.477-.476.715-.476 1.428 0 2.383-.238 4.525-.238 7.145v6.191c.238.953 0 2.145.238 3.334h-.477c-1.19-1.189-1.905-2.143-3.096-3.096-.953-.951-2.143-1.904-2.858-2.857-3.096-2.857-5.953-5.715-9.049-8.572 0 0 0 .238-.238.238v6.668c.238 1.904 0 4.047.238 5.715.476.477.714 1.191 1.429 1.191v.238l-.238.238c-1.429-.238-2.857-.238-4.287-.238-.238.238-.238 0-.238 0 0-.477.714-.477.952-.715.715-.953.477-2.383.477-3.572l.238-13.098-.238-1.668c.238-.238.238-.238.476 0l8.096 8.098zM121.145 160.914c.238 0 .238.238.238.238l.238.477v2.619h-.477c-.477-.477-.238-.953-.715-1.428-.951-.953-2.619-.953-3.811-.715a2.88 2.88 0 0 0-1.189 1.189c-.477.953-.715 2.145-.238 3.098.477.713 1.666 1.428 2.381 1.666.238.238.715.238.953.477 1.43.238 2.381.953 3.572 1.666.477.477.953 1.191 1.189 1.906.477 1.189.953 2.857.238 4.049v.236c-.475.715-.713 1.191-1.428 1.668-1.668 1.668-3.811 1.668-5.953 1.668-.715.236-1.43 0-2.383 0-.238 0-.713-.238-1.189-.238v-3.572c0-.238.238-.238.238-.238.477.713.951 1.428 1.666 1.666 1.43 1.191 3.334 1.191 5.24.715.951-.477 1.666-1.43 1.904-2.381.238-1.43-.477-2.857-1.666-3.572-.953-.715-2.145-1.191-3.098-1.668-1.666-.715-3.096-1.428-3.809-3.334-.477-1.666-.238-3.572 1.189-4.762 1.671-2.145 4.529-1.668 6.91-1.43zM184.014 161.152c.238 0 .238.238.238.477v3.096c-.238.238-.238.238-.477 0s0-.477-.238-.715c0-.715-.715-1.428-1.428-1.666h-4.049c-.477 0-.477.238-.715.477v14.526c0 .715.477 1.43 1.191 1.668 0 0 .477 0 .477.238 0 0 0 .238-.238.238h-5.24v-.238c.238-.477.953-.238 1.191-.953 0 0 .238-.238.238-.477V163.534c0-.477 0-.951-.477-1.189-1.191-.238-2.143 0-3.334 0-.953 0-1.668 0-2.143.951-.477.238-.477.715-.477 1.43 0 0-.238.238-.477 0v-3.572h15.958v-.002zM164.248 161.152h.238c.238 0 .238.238.238.238.238.953 0 1.904 0 2.619 0 .238-.238.238-.238 0-.238-.477-.715-1.189-1.43-1.428-1.666-.715-3.096-.238-4.762-.238-.238 0-.477.238-.477.477V169.011h5.715c.477 0 .715-.715 1.191-.953v.238c-.238.953 0 2.143 0 3.334 0 .238-.238 0-.238 0-.238-.477-.477-.953-.953-1.191-.238-.238-.713-.238-.951-.238h-4.764v5.955c0 .713.238 1.189.715 1.666s1.428.477 2.143.477c1.191 0 2.619-.238 3.811-.238.715-.238.715-1.191.953-1.668.238-.236.477-.236.477 0 0 .953-.238 1.906 0 2.859l-.238.238h-11.67c-.238 0-.238-.238 0-.238.477-.238 1.191-.477 1.43-1.191v-.715l.238-12.621c-.238-.953-.238-1.904-.715-2.857-.477-.238-.953 0-.953-.477 0-.238.238-.238.238-.238h10.002v-.001zM150.674 161.152c.238 0 .238 0 .238.238v3.096c0 .238-.238.238-.477.238-.238-.477-.238-.953-.477-1.43-.475-.713-1.189-.951-1.904-.951h-3.572c-.238 0-.477 0-.477.238l-.238.475v10.479c0 1.43 0 2.857.238 4.287 0 .238.238.477.477.715s.715.477.953.715c.238 0 .238 0 .238.238H139.956c-.236 0-.236-.238-.236-.477.475 0 1.189-.238 1.428-.715.238-.238.238-.715.238-1.191v-13.336c0-.477.238-1.189-.238-1.428h-.477c-1.428-.238-3.096-.238-4.287.238-.951.238-1.189 1.189-1.428 1.904 0 0 0 .238-.238.238v-3.334c0-.238 0-.238.238-.238h15.718v.001zM131.623 161.152v.238c0 .238-.238 0-.477.238-.715.238-.953.953-.953 1.666v13.336c.238.715 0 1.906.953 2.383.238.238.477 0 .715.238 0 .238-.238.238-.238.238-1.668-.238-3.334 0-4.764 0-.238 0-.238 0-.238-.238.238-.238.477-.238.715-.477.238 0 .477-.238.477-.477v-.953l.238-13.812c-.238-.713-.238-1.428-.715-1.666-.238-.238-.715-.238-.715-.477v-.238c.953 0 1.906.238 3.098 0l1.904.001zM90.186 161.391c.238.715 0 1.43 0 2.143v.238c-.476-.238-.476-.715-.952-.951-1.429-.953-3.096-.477-4.763-.477h-.715c-.238 0-.238.238-.238.238-.238 0-.238 4.285-.238 6.43H88.996c.238 0 .477-.238.714-.477 0 0-.238-.238 0-.238 0 0 .238-.238.238 0h.238c-.238 1.191-.238 2.143-.238 3.096h-.238c-.238-.715-.952-1.191-1.905-.953-1.429 0-2.858-.238-4.525 0V176.157c0 .475.238 1.189.714 1.666.953.715 2.381.477 3.572.477.952 0 2.143 0 2.619-.715.477-.477.238-.953.715-1.428 0 0 .238 0 .238.236v3.098H81.136c-.477 0-1.191.238-1.429 0-.238 0-.238-.238 0-.238.238-.238.714-.238.953-.715.238-.238.238-.477.238-.715v-5.715c.238-2.857.476-6.191 0-9.051-.238-.475-.238-1.189-.714-1.189-.238-.238-.477-.238-.477-.477 0 0-.238 0 0-.238h9.764c.477-.001.715-.001.715.238zM76.851 161.152c.238 0 .238.238.238.238-.476.477-1.19.477-1.429 1.191-2.381 5.715-4.763 11.43-7.382 17.383h-.238l-1.667-3.572-6.43-14.049c-.476-.477-.953-.477-1.429-.715-.238 0-.238-.238-.238-.238v-.238h5s.238 0 .238.238c0 .477-.714.477-.714.953v.476l2.619 5.715c.953 2.143 2.144 4.525 3.096 6.668.238-.238.238-.477.477-.715l4.287-10.717c.238-.477.476-1.666-.238-1.904-.238-.238-.476-.238-.476-.477v-.238l4.286.001zM56.608 161.152c.238.238.238.477 0 .477-.238.238-.714.238-.953.477-.476.477-.238 1.189-.238 1.666 0 1.668-.238 3.334-.238 5.002v7.857c.238.953.238 1.668.953 2.383.238 0 .476 0 .714.477 0 0 0 .238-.238.238-1.667-.238-3.334 0-4.763 0-.238 0-.238-.238-.238-.238 0-.477.476-.238.714-.477.477 0 .477-.477.477-.715.238-5.002.238-10.24.238-15.242-.238-.236-.238-.713-.476-.951-.476-.238-.952-.238-1.19-.477-.238 0 0-.238 0-.238l.238-.238 5-.001zM26.126 161.391c0 .238 0 .238-.238.238-.953.477-1.19 1.666-1.19 2.619v9.049c0 1.668-.477 3.096-1.429 4.287-.953 1.191-2.382 1.906-3.811 2.145-1.429.236-2.857.236-4.287.236-1.429-.236-2.857-.713-3.81-1.904-.238 0-.238-.238-.238-.238-.953-1.191-1.19-2.619-1.429-4.287v-10.002c-.238-.713-.238-1.666-1.191-1.904v-.238c.238-.238.476 0 .714 0 1.429 0 2.858-.238 4.287 0h.238c-.238.238-.476.238-.714.238-.953.715-.953 2.143-.953 3.096v6.43c0 2.381-.238 5.715 2.62 6.906.476.477 1.429.238 2.143.477 2.144 0 4.525-.715 5.715-2.381 0-.477.238-.953.238-1.43.238-3.334 0-6.191.238-9.764-.238-.715-.238-1.191-.477-1.668 0-.951-.714-1.428-1.19-1.666-.238-.238 0-.238.238-.238h2.381l2.145-.001zM110.904 179.252c-.953-.238-1.666-.715-2.143-1.43-.953-1.666-2.143-3.096-3.096-4.525-.477-.951-1.191-1.666-1.668-2.619v-.477l.953-.238c.953-.238 1.904-1.189 2.381-2.143.477-1.191.238-2.619 0-4.049-.238-.715-.951-1.666-1.666-2.143-.238 0-.477-.238-.953-.238-.238-.238-.715-.238-1.191-.238h-8.096s-.238 0-.238.238c.238.238.477.238.715.238.476.477.714.953.714 1.428v14.528c-.238.477-.238.953-.476 1.191-.238.238-.715.238-.953.477v.238c1.429 0 2.858-.238 4.288 0 .238 0 .713.238.951 0v-.477h-.951c-.477-.238-.477-.953-.477-1.191v-6.668-.477h1.904c.477.238.715.715.953.953 1.666 1.904 2.857 4.049 4.287 6.191.238.715.951 1.191 1.428 1.43.953.477 1.906.477 3.096.713l.238-.236v-.476zm-9.763-10.002c-.477 0-1.189 0-1.904-.238h-.238v-6.192c.477-.477.953-.238 1.428-.238 1.191 0 2.383-.238 3.572.475h.238v.238c.477.238.477.477.715.953.477.715.238 1.668.238 2.381-.238.953-.715 1.668-1.43 2.145-.713.238-1.428.476-2.619.476z"/></g></svg>
