<?xml version="1.0" encoding="utf-8"?>
<!-- Generator: Adobe Illustrator 13.0.2, SVG Export Plug-In . SVG Version: 6.00 Build 14948)  -->
<!DOCTYPE svg PUBLIC "-//W3C//DTD SVG 1.1//EN" "http://www.w3.org/Graphics/SVG/1.1/DTD/svg11.dtd">
<svg version="1.1" id="Layer_1" xmlns="http://www.w3.org/2000/svg" xmlns:xlink="http://www.w3.org/1999/xlink" x="0px" y="0px"
	 width="720px" height="720px" viewBox="0 0 636.531 636.701" enable-background="new 0 0 636.531 636.701"
	 xml:space="preserve">
<g>
	<g>
		<g>
			<g>
				<path fill="#FFFFFF" d="M635.648,318.351c0,175.266-142.094,317.359-317.344,317.359C143.023,635.71,0.93,493.616,0.93,318.351
					S143.023,0.991,318.305,0.991C493.555,0.991,635.648,143.085,635.648,318.351"/>
				<path fill="none" stroke="#BC9307" stroke-width="1.692" d="M635.648,318.351c0,175.266-142.094,317.359-317.344,317.359
					C143.023,635.71,0.93,493.616,0.93,318.351S143.023,0.991,318.305,0.991C493.555,0.991,635.648,143.085,635.648,318.351z"/>
				<path fill="#007CB7" d="M619.539,246.647c-8.734-31.203-25.953-56.641-47.141-72.109c-27.375,2.797-49.672,18.438-64.656,39.703
					c23.359,11.688,45.391,44.422,48.562,72.781L619.539,246.647 M17.023,385.413c8.734,31.203,25.938,56.641,47.141,72.078
					c27.359-2.766,49.641-18.391,64.625-39.672c-23.344-11.672-45.375-44.406-48.547-72.797L17.023,385.413z M233.023,409.741
					c37.781-84.297,98.25-153.688,150.109-180.359c13.312-28.188,41.219-75.219,63.875-94.312
					c-132.688,13.656-224.75,147.688-273.203,242.859c-41.641,81.766-94.719,93.25-134.266,89.641
					C13.742,421.601-0.664,368.585,0.023,312.304C2.117,139.054,146.289-2.04,322.055,0.022
					c87.516,1.031,166.391,39.078,223.234,96.141c-48.156,10.469-106.453,47.469-141.75,126.172
					c-37.781,84.281-98.25,153.688-150.125,180.359c-13.297,28.188-41.203,75.219-63.875,94.281
					c132.672-13.641,224.75-147.672,273.219-242.828c41.625-81.75,94.719-93.25,134.266-89.641
					c25.766,45.969,40.172,102.438,39.484,158.719c-2.062,173.25-146.25,315.5-322.016,313.453
					c-87.484-1.031-168.594-41.391-225.438-98.344C137.195,527.819,197.695,488.46,233.023,409.741z"/>
			</g>
		</g>
	</g>
</g>
</svg>
